<svg xmlns="http://www.w3.org/2000/svg" xmlns:xlink="http://www.w3.org/1999/xlink" width="68" zoomAndPan="magnify" viewBox="0 0 50.879997 50.999998" height="68" preserveAspectRatio="xMidYMid meet" version="1.0"><defs><clipPath id="dd9c0219ea"><path d="M 0.535156 2.644531 L 50.34375 2.644531 L 50.34375 48.277344 L 0.535156 48.277344 Z M 0.535156 2.644531 " clip-rule="nonzero"/></clipPath></defs><g clip-path="url(#dd9c0219ea)"><path fill="#0a2828" d="M 5.351562 8.191406 C 6.335938 8.929688 7.03125 8.945312 7.371094 8.523438 C 7.710938 8.105469 7.546875 7.398438 6.515625 6.628906 C 6.003906 6.253906 5.332031 6.042969 4.710938 5.9375 C 4.410156 5.886719 4.160156 5.859375 3.964844 5.847656 C 2.867188 5.152344 1.75 4.5 0.605469 3.894531 C 0.558594 3.867188 0.507812 3.941406 0.558594 3.976562 C 1.664062 4.648438 2.800781 5.320312 3.816406 6.101562 C 4.164062 6.808594 4.6875 7.695312 5.351562 8.191406 Z M 5.832031 11.691406 C 7.15625 12.785156 8.710938 12.90625 9.863281 11.34375 C 8.902344 10.28125 7.496094 10.070312 5.84375 11.25 C 5.246094 11.25 4.644531 11.210938 4.046875 11.148438 C 3.410156 11.070312 2.765625 10.960938 2.191406 10.679688 C 2.15625 10.65625 2.113281 10.722656 2.152344 10.746094 C 2.996094 11.257812 4.007812 11.425781 4.972656 11.585938 C 5.257812 11.625 5.542969 11.660156 5.832031 11.691406 Z M 11.824219 13.242188 C 10.851562 12 9.214844 11.992188 7.808594 12.949219 C 6.582031 12.84375 5.289062 12.753906 4.183594 12.175781 C 4.148438 12.152344 4.105469 12.214844 4.140625 12.238281 C 5.214844 12.945312 6.523438 13.160156 7.773438 13.386719 C 8.984375 14.5 10.542969 14.800781 11.824219 13.242188 Z M 9.632812 15.179688 C 10.777344 16.300781 12.21875 16.808594 13.683594 15.242188 C 12.730469 13.894531 11.074219 13.90625 9.6875 14.746094 C 8.460938 14.578125 7.175781 14.417969 6.101562 13.78125 C 6.066406 13.757812 6.019531 13.816406 6.054688 13.839844 C 6.847656 14.445312 7.835938 14.726562 8.785156 14.984375 C 9.0625 15.058594 9.339844 15.125 9.632812 15.179688 Z M 15.453125 17.328125 C 14.652344 16.140625 13.292969 15.722656 11.480469 16.636719 C 10.886719 16.542969 10.292969 16.414062 9.710938 16.253906 C 9.09375 16.074219 8.464844 15.863281 7.941406 15.488281 C 7.90625 15.460938 7.855469 15.519531 7.890625 15.546875 C 8.851562 16.355469 10.207031 16.734375 11.402344 17.074219 C 12.546875 18.351562 14.074219 18.722656 15.453125 17.328125 Z M 13.089844 19.050781 C 14.1875 20.390625 15.695312 20.820312 17.128906 19.488281 C 16.335938 18.113281 14.707031 17.886719 13.1875 18.621094 C 11.980469 18.335938 10.703125 18.042969 9.695312 17.296875 C 9.664062 17.265625 9.609375 17.320312 9.644531 17.351562 C 10.378906 18.039062 11.332031 18.417969 12.265625 18.769531 C 12.539062 18.867188 12.808594 18.964844 13.089844 19.050781 Z M 14.695312 21.105469 C 15.714844 22.488281 17.21875 22.996094 18.710938 21.71875 C 17.976562 20.3125 16.347656 20.015625 14.808594 20.679688 C 13.609375 20.34375 12.351562 19.988281 11.371094 19.191406 C 11.339844 19.160156 11.285156 19.214844 11.316406 19.246094 C 12.023438 19.96875 12.964844 20.390625 13.878906 20.789062 C 14.144531 20.902344 14.414062 21.007812 14.695312 21.105469 Z M 16.210938 23.238281 C 17.140625 24.601562 18.605469 25.269531 20.203125 24.011719 C 19.523438 22.578125 17.921875 22.214844 16.34375 22.8125 C 15.167969 22.425781 13.898438 22.011719 12.96875 21.167969 C 12.9375 21.136719 12.882812 21.1875 12.910156 21.21875 C 13.582031 21.976562 14.507812 22.445312 15.40625 22.882812 C 15.675781 23.003906 15.933594 23.125 16.210938 23.238281 Z M 17.5 25.410156 C 18.371094 26.808594 19.824219 27.53125 21.460938 26.332031 C 20.800781 24.816406 19.171875 24.480469 17.648438 24.992188 C 16.476562 24.554688 15.246094 24.09375 14.339844 23.214844 C 14.308594 23.179688 14.25 23.226562 14.277344 23.261719 C 14.921875 24.046875 15.828125 24.550781 16.710938 25.023438 C 16.96875 25.160156 17.230469 25.289062 17.5 25.410156 Z M 18.882812 27.667969 C 19.78125 29.023438 21.078125 29.839844 22.847656 28.601562 C 22.226562 27.152344 20.640625 26.714844 19.03125 27.25 C 17.867188 26.808594 16.613281 26.339844 15.71875 25.449219 C 15.6875 25.417969 15.628906 25.464844 15.65625 25.5 C 16.296875 26.289062 17.207031 26.800781 18.09375 27.277344 C 18.351562 27.410156 18.609375 27.542969 18.882812 27.667969 Z M 23.359375 30.035156 C 22.535156 29.382812 21.527344 29.296875 20.332031 29.628906 C 19.171875 29.15625 17.941406 28.644531 17.058594 27.730469 C 17.03125 27.695312 16.96875 27.742188 16.996094 27.777344 C 17.8125 28.808594 19.023438 29.441406 20.175781 30.039062 C 21.015625 31.460938 22.445312 32.246094 24.121094 31.078125 C 24.027344 30.796875 23.722656 30.324219 23.359375 30.035156 Z M 4.851562 10.105469 C 5.863281 10.839844 7 11.074219 7.957031 9.710938 C 7.132812 8.832031 5.851562 8.945312 4.847656 9.765625 C 4.132812 9.773438 3.402344 9.757812 2.699219 9.609375 C 2.453125 9.558594 2.214844 9.488281 1.988281 9.382812 C 1.976562 9.375 1.957031 9.378906 1.953125 9.394531 C 1.945312 9.410156 1.949219 9.425781 1.960938 9.433594 C 2.402344 9.695312 2.90625 9.824219 3.410156 9.921875 C 3.886719 10.007812 4.363281 10.074219 4.851562 10.105469 Z M 7.925781 5.722656 C 7.433594 6.9375 7.664062 8.199219 8.671875 8.859375 C 9.917969 7.660156 9.292969 6.453125 8.273438 5.652344 C 7.84375 4.625 7.296875 3.582031 6.402344 2.882812 C 6.371094 2.859375 6.335938 2.90625 6.367188 2.929688 C 7.164062 3.671875 7.601562 4.707031 7.925781 5.722656 Z M 9.773438 6.417969 C 8.996094 8.308594 9.445312 9.652344 10.582031 10.535156 C 12.199219 9.148438 11.609375 7.496094 10.226562 6.347656 C 9.703125 4.976562 9.011719 3.601562 7.855469 2.652344 C 7.816406 2.621094 7.765625 2.675781 7.804688 2.710938 C 8.835938 3.703125 9.378906 5.078125 9.773438 6.417969 Z M 11.980469 8.328125 C 11.210938 9.84375 11.359375 11.507812 12.582031 12.476562 C 14.308594 11.140625 13.695312 9.421875 12.441406 8.277344 C 11.996094 6.894531 11.378906 5.46875 10.277344 4.472656 C 10.238281 4.4375 10.1875 4.488281 10.226562 4.527344 C 11.195312 5.566406 11.667969 6.96875 11.980469 8.328125 Z M 14.085938 10.339844 C 13.25 11.800781 13.296875 13.460938 14.476562 14.511719 C 16.21875 13.292969 15.800781 11.59375 14.550781 10.3125 C 14.171875 8.90625 13.636719 7.460938 12.59375 6.410156 C 12.554688 6.375 12.5 6.421875 12.535156 6.464844 C 13.449219 7.546875 13.84375 8.976562 14.085938 10.339844 Z M 16.089844 12.449219 C 15.039062 14.207031 15.277344 15.589844 16.277344 16.632812 C 18.070312 15.492188 17.734375 13.78125 16.550781 12.445312 C 16.246094 11.023438 15.78125 9.566406 14.796875 8.457031 C 14.765625 8.417969 14.703125 8.464844 14.738281 8.507812 C 15.589844 9.640625 15.910156 11.074219 16.089844 12.449219 Z M 17.980469 14.648438 C 17 16.035156 16.910156 17.699219 17.984375 18.828125 C 19.816406 17.773438 19.566406 16.042969 18.441406 14.664062 C 18.242188 13.414062 17.90625 12.160156 17.230469 11.074219 C 17.128906 10.914062 17.011719 10.753906 16.890625 10.605469 C 16.855469 10.566406 16.796875 10.613281 16.828125 10.65625 C 17.621094 11.824219 17.871094 13.265625 17.980469 14.648438 Z M 19.769531 16.921875 C 18.738281 18.253906 18.554688 19.902344 19.59375 21.097656 C 21.027344 20.347656 21.347656 19.082031 20.707031 17.75 C 20.554688 17.425781 20.371094 17.148438 20.230469 16.957031 C 20.199219 16.636719 20.148438 16.328125 20.09375 16.011719 C 19.878906 14.902344 19.558594 13.761719 18.867188 12.84375 C 18.839844 12.804688 18.773438 12.84375 18.804688 12.890625 C 19.542969 14.089844 19.71875 15.542969 19.769531 16.921875 Z M 21.457031 19.265625 C 20.359375 20.5625 20.128906 22.210938 21.109375 23.425781 C 23.066406 22.5 22.875 20.714844 21.914062 19.320312 C 21.804688 17.882812 21.550781 16.386719 20.738281 15.160156 C 20.710938 15.117188 20.648438 15.15625 20.675781 15.203125 C 21.351562 16.4375 21.46875 17.886719 21.457031 19.265625 Z M 23.085938 21.523438 C 21.984375 22.730469 21.609375 24.355469 22.578125 25.667969 C 24.574219 24.8125 24.441406 23.027344 23.539062 21.59375 C 23.496094 20.335938 23.328125 19.058594 22.804688 17.902344 C 22.722656 17.726562 22.632812 17.558594 22.527344 17.398438 C 22.515625 17.378906 22.496094 17.371094 22.476562 17.382812 C 22.457031 17.390625 22.449219 17.417969 22.460938 17.4375 C 23.089844 18.691406 23.144531 20.152344 23.085938 21.523438 Z M 24.578125 24 C 23.335938 25.164062 22.929688 26.777344 23.773438 28.089844 C 25.882812 27.34375 25.785156 25.558594 25.023438 24.105469 C 25.074219 22.671875 24.996094 21.160156 24.335938 19.859375 C 24.3125 19.8125 24.242188 19.84375 24.265625 19.890625 C 24.789062 21.191406 24.742188 22.636719 24.578125 24 Z M 26.015625 26.539062 C 24.722656 27.636719 24.234375 29.230469 25.015625 30.578125 C 27.085938 29.964844 27.183594 28.195312 26.457031 26.664062 C 26.578125 25.238281 26.582031 23.734375 25.984375 22.402344 C 25.964844 22.359375 25.894531 22.386719 25.914062 22.433594 C 26.289062 23.472656 26.257812 24.597656 26.144531 25.679688 C 26.113281 25.96875 26.070312 26.257812 26.015625 26.539062 Z M 38.78125 10.5625 C 39.589844 10.960938 40.398438 9.53125 40.523438 8.84375 C 40.625 8.414062 40.691406 7.828125 40.695312 7.433594 L 41.054688 6.816406 C 41.335938 6.308594 42.101562 5.132812 42.417969 4.625 C 42.429688 4.605469 42.425781 4.582031 42.410156 4.570312 C 42.390625 4.558594 42.367188 4.5625 42.355469 4.578125 C 42.007812 5.082031 41.191406 6.210938 40.882812 6.710938 C 40.882812 6.710938 40.511719 7.292969 40.511719 7.292969 C 40.160156 7.476562 39.628906 7.820312 39.316406 8.144531 C 38.773438 8.640625 37.960938 10.066406 38.78125 10.5625 Z M 36.976562 13.230469 C 37.6875 12.113281 37.285156 10.71875 36.242188 9.773438 C 36.078125 8.613281 36.027344 7.390625 36.453125 6.277344 C 36.46875 6.238281 36.414062 6.207031 36.394531 6.25 C 35.851562 7.367188 35.800781 8.644531 35.863281 9.863281 C 35.234375 11.105469 35.183594 12.628906 36.976562 13.230469 Z M 34.863281 14.691406 C 35.105469 14.976562 35.480469 15.21875 36.019531 15.386719 C 36.691406 14.238281 36.25 12.882812 35.164062 11.957031 C 34.960938 10.808594 34.851562 9.589844 35.238281 8.464844 C 35.257812 8.425781 35.195312 8.398438 35.179688 8.441406 C 34.675781 9.574219 34.683594 10.851562 34.789062 12.0625 C 34.414062 12.863281 34.222656 13.941406 34.863281 14.691406 Z M 33.523438 15.992188 C 33.621094 16.644531 34.054688 17.273438 35.136719 17.570312 C 35.777344 16.351562 35.261719 15.046875 34.164062 14.175781 C 33.929688 13.039062 33.761719 11.824219 34.113281 10.691406 C 34.128906 10.648438 34.070312 10.625 34.050781 10.667969 C 33.585938 11.8125 33.652344 13.085938 33.789062 14.289062 C 33.632812 14.664062 33.425781 15.339844 33.523438 15.992188 Z M 32.660156 18.253906 C 32.824219 19.078125 33.410156 19.558594 34.328125 19.78125 C 34.820312 18.648438 34.617188 17.503906 33.238281 16.417969 C 32.976562 15.292969 32.757812 14.085938 33.070312 12.949219 C 33.085938 12.90625 33.023438 12.886719 33.011719 12.925781 C 32.589844 14.070312 32.691406 15.367188 32.875 16.550781 C 32.734375 16.925781 32.542969 17.605469 32.660156 18.253906 Z M 31.871094 20.539062 C 32.019531 21.183594 32.476562 21.785156 33.582031 22.015625 C 34.023438 21.085938 33.828125 19.667969 32.394531 18.691406 C 32.085938 17.605469 31.839844 16.347656 32.109375 15.230469 C 32.121094 15.191406 32.058594 15.171875 32.046875 15.210938 C 31.667969 16.335938 31.808594 17.6875 32.035156 18.832031 C 31.871094 19.300781 31.734375 19.984375 31.871094 20.539062 Z M 31.261719 21.132812 C 30.847656 22.464844 31.039062 23.941406 32.898438 24.265625 C 33.398438 23.121094 32.882812 21.789062 31.617188 20.980469 C 31.273438 19.894531 30.996094 18.679688 31.222656 17.539062 C 31.230469 17.496094 31.171875 17.480469 31.160156 17.523438 C 30.886719 18.4375 30.960938 19.417969 31.101562 20.347656 C 31.148438 20.613281 31.199219 20.871094 31.261719 21.132812 Z M 30.554688 23.449219 C 30.132812 24.902344 30.542969 26.300781 32.277344 26.535156 C 32.769531 25.300781 32.132812 24.03125 30.910156 23.289062 C 30.527344 22.203125 30.226562 21.027344 30.40625 19.867188 C 30.417969 19.824219 30.355469 19.808594 30.34375 19.851562 C 30.109375 20.773438 30.199219 21.75 30.378906 22.671875 C 30.429688 22.933594 30.488281 23.191406 30.554688 23.449219 Z M 29.84375 25.675781 C 29.484375 27.070312 29.839844 28.515625 31.648438 28.71875 C 32.019531 27.546875 31.691406 26.429688 30.195312 25.507812 C 29.792969 24.425781 29.449219 23.261719 29.605469 22.097656 C 29.613281 22.058594 29.550781 22.042969 29.542969 22.085938 C 29.324219 23.015625 29.449219 23.984375 29.648438 24.902344 C 29.707031 25.164062 29.769531 25.417969 29.84375 25.675781 Z M 29.277344 28.046875 C 29.015625 29.320312 29.359375 30.878906 31.261719 30.972656 C 31.5625 29.800781 31.160156 28.667969 29.613281 27.859375 C 29.148438 26.808594 28.726562 25.667969 28.816406 24.5 C 28.824219 24.460938 28.761719 24.449219 28.753906 24.492188 C 28.636719 25.121094 28.699219 25.761719 28.816406 26.378906 C 28.925781 26.953125 29.074219 27.503906 29.277344 28.046875 Z M 28.734375 30.457031 C 28.527344 31.828125 28.9375 33.253906 30.820312 33.296875 C 31.109375 32.308594 30.644531 30.949219 29.066406 30.253906 C 28.558594 29.226562 28.097656 28.101562 28.136719 26.9375 C 28.140625 26.894531 28.078125 26.886719 28.074219 26.929688 C 27.976562 27.554688 28.078125 28.195312 28.207031 28.808594 C 28.332031 29.375 28.519531 29.917969 28.734375 30.457031 Z M 37.890625 11.265625 C 38.359375 10.617188 38.355469 9.503906 37.398438 8.585938 C 37.3125 7.703125 37.253906 6.753906 37.609375 5.917969 C 37.625 5.886719 37.578125 5.863281 37.5625 5.894531 C 37.121094 6.734375 37.097656 7.71875 37.105469 8.648438 C 36.605469 9.59375 36.527344 10.753906 37.890625 11.265625 Z M 41.183594 10.660156 C 39.886719 10.304688 38.996094 10.949219 38.734375 11.691406 C 39.933594 12.453125 40.777344 11.847656 41.292969 10.929688 C 41.957031 10.574219 42.597656 10.164062 43.113281 9.613281 C 43.1875 9.53125 43.257812 9.445312 43.320312 9.355469 C 43.328125 9.34375 43.324219 9.332031 43.3125 9.324219 C 43.304688 9.316406 43.289062 9.316406 43.277344 9.328125 C 42.84375 9.816406 42.261719 10.148438 41.675781 10.4375 C 41.515625 10.515625 41.347656 10.59375 41.183594 10.660156 Z M 40.945312 12.183594 C 39.546875 11.847656 38.261719 12.3125 37.8125 13.601562 C 39.398438 14.53125 40.449219 13.71875 41.101562 12.527344 C 41.574219 12.261719 42.019531 11.96875 42.449219 11.644531 C 42.910156 11.308594 43.355469 10.9375 43.664062 10.457031 C 43.671875 10.445312 43.667969 10.425781 43.65625 10.414062 C 43.640625 10.40625 43.621094 10.40625 43.609375 10.421875 C 43.265625 10.859375 42.796875 11.179688 42.316406 11.464844 C 41.878906 11.722656 41.410156 11.976562 40.945312 12.183594 Z M 42.554688 12.328125 C 42.222656 12.777344 41.761719 13.113281 41.292969 13.421875 C 40.871094 13.710938 40.414062 13.964844 39.949219 14.195312 C 38.53125 13.910156 37.269531 14.4375 36.867188 15.726562 C 38.488281 16.59375 39.5 15.773438 40.117188 14.53125 C 40.820312 14.101562 41.492188 13.605469 42.082031 13.027344 C 42.132812 12.996094 42.804688 12.230469 42.554688 12.328125 Z M 41.117188 14.996094 C 41.164062 14.960938 41.8125 14.171875 41.566406 14.277344 C 41.332031 14.625 41.015625 14.914062 40.683594 15.167969 C 40.167969 15.578125 39.605469 15.933594 39.023438 16.246094 C 38.460938 16.164062 37.9375 16.175781 37.449219 16.339844 C 36.703125 16.574219 36.136719 17.246094 36 17.882812 C 37.609375 18.734375 38.738281 17.734375 39.203125 16.574219 C 39.898438 16.117188 40.546875 15.601562 41.117188 14.996094 Z M 40.648438 16.269531 C 40.496094 16.507812 40.308594 16.714844 40.105469 16.910156 C 39.527344 17.46875 38.859375 17.925781 38.164062 18.328125 C 36.464844 18.15625 35.488281 18.894531 35.199219 20.066406 C 36.746094 20.820312 37.871094 19.957031 38.355469 18.65625 C 39.246094 17.996094 40.164062 17.285156 40.703125 16.300781 C 40.722656 16.269531 40.664062 16.238281 40.648438 16.269531 Z M 39.789062 18.300781 C 39.203125 19.222656 38.277344 19.851562 37.378906 20.445312 C 35.65625 20.273438 34.625 21.25 34.460938 22.277344 C 36.148438 22.996094 37.097656 22.046875 37.578125 20.765625 C 38.285156 20.203125 38.988281 19.617188 39.515625 18.878906 C 39.546875 18.839844 40 18.1875 39.789062 18.300781 Z M 38.996094 20.363281 C 38.859375 20.605469 38.6875 20.832031 38.503906 21.042969 C 37.964844 21.640625 37.308594 22.128906 36.652344 22.589844 C 35.136719 22.488281 33.992188 23.242188 33.785156 24.503906 C 35.484375 25.210938 36.484375 24.105469 36.863281 22.902344 C 37.707031 22.179688 38.582031 21.414062 39.054688 20.390625 C 39.070312 20.355469 39.011719 20.328125 38.996094 20.363281 Z M 38.265625 22.453125 C 38.140625 22.707031 37.976562 22.9375 37.792969 23.152344 C 37.269531 23.761719 36.636719 24.28125 35.988281 24.753906 C 34.542969 24.699219 33.367188 25.414062 33.167969 26.75 C 34.90625 27.371094 35.785156 26.390625 36.203125 25.0625 C 36.621094 24.707031 37.003906 24.328125 37.367188 23.917969 C 37.753906 23.488281 38.117188 23.023438 38.324219 22.480469 C 38.339844 22.445312 38.28125 22.417969 38.265625 22.453125 Z M 37.710938 24.527344 C 37.59375 24.78125 37.433594 25.015625 37.257812 25.238281 C 36.742188 25.855469 36.132812 26.398438 35.492188 26.886719 C 33.769531 26.902344 32.886719 27.773438 32.730469 28.953125 C 34.359375 29.53125 35.371094 28.554688 35.714844 27.191406 C 36.175781 26.773438 36.605469 26.332031 36.988281 25.84375 C 37.308594 25.453125 37.601562 25.027344 37.773438 24.550781 C 37.785156 24.511719 37.726562 24.488281 37.710938 24.527344 Z M 37.175781 26.75 C 37.054688 27.003906 36.890625 27.238281 36.710938 27.457031 C 36.199219 28.082031 35.574219 28.613281 34.925781 29.097656 C 33.191406 29.109375 32.328125 29.9375 32.144531 31.136719 C 33.859375 31.78125 34.839844 30.613281 35.152344 29.402344 C 35.964844 28.640625 36.808594 27.824219 37.238281 26.773438 C 37.25 26.738281 37.191406 26.714844 37.175781 26.75 Z M 36.65625 28.980469 C 36.160156 29.960938 35.285156 30.6875 34.441406 31.363281 C 32.699219 31.347656 31.769531 32.414062 31.675781 33.445312 C 33.425781 34.035156 34.300781 32.984375 34.667969 31.667969 C 35.472656 30.890625 36.304688 30.0625 36.714844 29.003906 C 36.726562 28.964844 36.671875 28.941406 36.65625 28.980469 Z M 49.636719 24.164062 C 49.191406 24.554688 48.652344 25.027344 48.050781 25.574219 C 46.683594 26.8125 45.234375 28.207031 43.851562 29.621094 C 39.894531 33.636719 35.878906 38.617188 33.148438 43.367188 C 32.464844 44.519531 31.84375 45.675781 31.1875 46.839844 C 30.886719 47.371094 30.550781 47.996094 29.988281 48.292969 C 29.394531 48.601562 29.511719 47.488281 29.546875 47.214844 C 29.660156 45.949219 29.511719 44.679688 29.101562 43.472656 C 25.636719 32.210938 19.984375 21.417969 11.714844 12.9375 C 10.9375 12.152344 7.324219 8.863281 7.515625 8.625 C 7.742188 8.339844 11.78125 11.90625 12.714844 12.859375 C 13.898438 14.070312 15.023438 15.339844 16.101562 16.648438 C 22.386719 24.367188 26.847656 33.46875 29.691406 42.980469 C 30.40625 33.871094 32.292969 24.792969 35.761719 16.320312 C 36.191406 15.113281 38.242188 11.144531 38.722656 10.699219 C 38.738281 11.257812 36.875 15.207031 36.371094 16.566406 C 36.234375 16.914062 36.054688 17.335938 35.925781 17.6875 C 33.5 24.058594 31.890625 30.734375 30.933594 37.480469 C 30.671875 39.320312 30.457031 41.179688 30.300781 43.027344 C 30.265625 43.46875 30.199219 43.910156 30.191406 44.351562 C 30.183594 44.542969 30.132812 44.945312 30.238281 45.105469 C 30.214844 45.066406 30.644531 44.117188 30.699219 44 C 31.097656 43.128906 31.664062 42.300781 32.140625 41.464844 C 32.613281 40.632812 33.132812 39.871094 33.683594 39.089844 C 35.34375 36.75 37.226562 34.566406 39.230469 32.511719 C 41.207031 30.484375 43.308594 28.574219 45.507812 26.789062 C 46.820312 25.726562 48.164062 24.710938 49.402344 23.859375 C 49.96875 23.46875 50.292969 23.332031 50.339844 23.390625 C 50.382812 23.453125 50.152344 23.714844 49.636719 24.164062 " fill-opacity="1" fill-rule="nonzero"/></g></svg>