<svg xmlns="http://www.w3.org/2000/svg" xmlns:xlink="http://www.w3.org/1999/xlink" width="68" zoomAndPan="magnify" viewBox="0 0 50.879997 50.999998" height="68" preserveAspectRatio="xMidYMid meet" version="1.0"><defs><clipPath id="aded9dc9e2"><path d="M 4 16 L 26 16 L 26 40.289062 L 4 40.289062 Z M 4 16 " clip-rule="nonzero"/></clipPath><clipPath id="4f3a756b99"><path d="M 3 12.605469 L 7 12.605469 L 7 16 L 3 16 Z M 3 12.605469 " clip-rule="nonzero"/></clipPath><clipPath id="1b99fda3f1"><path d="M 17 33 L 26 33 L 26 40.289062 L 17 40.289062 Z M 17 33 " clip-rule="nonzero"/></clipPath><clipPath id="755bac0403"><path d="M 25 15 L 47 15 L 47 40.289062 L 25 40.289062 Z M 25 15 " clip-rule="nonzero"/></clipPath><clipPath id="217b762ed9"><path d="M 44 12.605469 L 48 12.605469 L 48 16 L 44 16 Z M 44 12.605469 " clip-rule="nonzero"/></clipPath><clipPath id="29e31246e7"><path d="M 46 14 L 50.761719 14 L 50.761719 16 L 46 16 Z M 46 14 " clip-rule="nonzero"/></clipPath><clipPath id="62b0f8f83d"><path d="M 24 33 L 34 33 L 34 40.289062 L 24 40.289062 Z M 24 33 " clip-rule="nonzero"/></clipPath></defs><g clip-path="url(#aded9dc9e2)"><path fill="#f4b41a" d="M 25.734375 40.210938 L 25.140625 40.265625 C 24.019531 28.621094 14.8125 19.878906 4.523438 16 C 13.046875 18.402344 24.472656 27.117188 25.734375 40.210938 Z M 25.734375 40.210938 " fill-opacity="1" fill-rule="nonzero"/></g><path fill="#f4b41a" d="M 22.894531 29.335938 C 25.070312 27.601562 23.46875 22.960938 21.46875 21.867188 C 24.75 26.226562 19.792969 25.578125 22.894531 29.335938 Z M 22.894531 29.335938 " fill-opacity="1" fill-rule="evenodd"/><path fill="#f4b41a" d="M 20.65625 26.089844 C 22.570312 24.0625 20.242188 19.804688 18.332031 19.0625 C 22.066406 22.839844 17.199219 22.894531 20.65625 26.089844 Z M 20.65625 26.089844 " fill-opacity="1" fill-rule="evenodd"/><path fill="#f4b41a" d="M 18.117188 23.128906 C 19.585938 20.933594 17.078125 17.328125 15.050781 16.722656 C 19.117188 19.917969 14.429688 20.488281 18.117188 23.128906 Z M 18.117188 23.128906 " fill-opacity="1" fill-rule="evenodd"/><path fill="#f4b41a" d="M 15.34375 20.835938 C 16.660156 18.671875 14.035156 15.484375 11.929688 15.15625 C 15.980469 17.773438 11.683594 18.691406 15.34375 20.835938 Z M 15.34375 20.835938 " fill-opacity="1" fill-rule="evenodd"/><path fill="#f4b41a" d="M 12.167969 18.492188 C 13.046875 16.347656 10.628906 14.050781 8.449219 13.886719 C 12.296875 15.683594 8.644531 17.035156 12.167969 18.492188 Z M 12.167969 18.492188 " fill-opacity="1" fill-rule="evenodd"/><path fill="#f4b41a" d="M 9.097656 17.082031 C 9.734375 15.304688 7.851562 13.425781 6.035156 13.378906 C 8.808594 14.082031 6.429688 15.980469 9.097656 17.082031 Z M 9.097656 17.082031 " fill-opacity="1" fill-rule="evenodd"/><g clip-path="url(#4f3a756b99)"><path fill="#f4b41a" d="M 6.472656 15.765625 C 7.136719 13.996094 4.878906 12.65625 3.644531 12.734375 C 6.46875 13.867188 3.894531 14.867188 6.472656 15.765625 Z M 6.472656 15.765625 " fill-opacity="1" fill-rule="evenodd"/></g><path fill="#f4b41a" d="M 4.183594 15.660156 C 4.03125 14.113281 0.957031 13.8125 0.0664062 14.929688 C 2.558594 13.820312 1.625 16.472656 4.183594 15.660156 Z M 4.183594 15.660156 " fill-opacity="1" fill-rule="evenodd"/><path fill="#f4b41a" d="M 21.378906 30.175781 C 19.136719 31.929688 15.136719 29.425781 14.289062 26.804688 C 16.910156 31.164062 18.578125 26.269531 21.378906 30.175781 Z M 21.378906 30.175781 " fill-opacity="1" fill-rule="evenodd"/><path fill="#f4b41a" d="M 19.40625 27.421875 C 17.140625 28.746094 13.226562 26.683594 12.628906 24.003906 C 15.28125 27.933594 17.011719 23.511719 19.40625 27.421875 Z M 19.40625 27.421875 " fill-opacity="1" fill-rule="evenodd"/><path fill="#f4b41a" d="M 16.886719 24.265625 C 15.144531 25.777344 11.585938 24.570312 10.152344 22.007812 C 13.289062 25.359375 14.027344 20.925781 16.886719 24.265625 Z M 16.886719 24.265625 " fill-opacity="1" fill-rule="evenodd"/><path fill="#f4b41a" d="M 14.375 21.980469 C 12.390625 23.765625 8.75 22.15625 7.859375 20.570312 C 11.023438 23.335938 11.394531 19.132812 14.375 21.980469 Z M 14.375 21.980469 " fill-opacity="1" fill-rule="evenodd"/><path fill="#f4b41a" d="M 11.238281 19.761719 C 10.03125 21.519531 7.105469 20.933594 5.414062 19.238281 C 9.082031 21.398438 8.0625 17.699219 11.238281 19.761719 Z M 11.238281 19.761719 " fill-opacity="1" fill-rule="evenodd"/><path fill="#f4b41a" d="M 8.601562 18.386719 C 7.851562 19.921875 5.019531 19.59375 3.839844 18.125 C 6.910156 19.777344 5.921875 16.789062 8.601562 18.386719 Z M 8.601562 18.386719 " fill-opacity="1" fill-rule="evenodd"/><path fill="#f4b41a" d="M 6.046875 17.222656 C 5.4375 18.492188 3.078125 18.371094 1.945312 17.121094 C 4.644531 18.453125 3.671875 15.917969 6.046875 17.222656 Z M 6.046875 17.222656 " fill-opacity="1" fill-rule="evenodd"/><g clip-path="url(#1b99fda3f1)"><path fill="#f4b41a" d="M 24.964844 40.289062 C 24.960938 40.273438 24.222656 34.117188 17.558594 33.359375 C 21.855469 33.238281 25 35.570312 25.914062 40.191406 Z M 24.964844 40.289062 " fill-opacity="1" fill-rule="nonzero"/></g><g clip-path="url(#755bac0403)"><path fill="#f4b41a" d="M 25.144531 40.160156 L 25.738281 40.21875 C 26.859375 28.570312 36.066406 19.828125 46.355469 15.949219 C 37.832031 18.351562 26.40625 27.066406 25.144531 40.160156 Z M 25.144531 40.160156 " fill-opacity="1" fill-rule="nonzero"/></g><path fill="#f4b41a" d="M 27.988281 29.285156 C 25.8125 27.550781 27.414062 22.910156 29.414062 21.816406 C 26.132812 26.175781 31.085938 25.527344 27.988281 29.285156 Z M 27.988281 29.285156 " fill-opacity="1" fill-rule="evenodd"/><path fill="#f4b41a" d="M 30.226562 26.039062 C 28.308594 24.011719 30.636719 19.75 32.546875 19.011719 C 28.8125 22.789062 33.679688 22.84375 30.226562 26.039062 Z M 30.226562 26.039062 " fill-opacity="1" fill-rule="evenodd"/><path fill="#f4b41a" d="M 32.761719 23.078125 C 31.292969 20.882812 33.800781 17.28125 35.832031 16.671875 C 31.761719 19.867188 36.449219 20.4375 32.761719 23.078125 Z M 32.761719 23.078125 " fill-opacity="1" fill-rule="evenodd"/><path fill="#f4b41a" d="M 35.535156 20.785156 C 34.21875 18.621094 36.847656 15.433594 38.949219 15.105469 C 34.898438 17.722656 39.195312 18.644531 35.535156 20.785156 Z M 35.535156 20.785156 " fill-opacity="1" fill-rule="evenodd"/><path fill="#f4b41a" d="M 38.714844 18.441406 C 37.832031 16.296875 40.25 14.003906 42.429688 13.835938 C 38.582031 15.632812 42.234375 16.984375 38.714844 18.441406 Z M 38.714844 18.441406 " fill-opacity="1" fill-rule="evenodd"/><path fill="#f4b41a" d="M 41.78125 17.035156 C 41.144531 15.253906 43.027344 13.375 44.847656 13.332031 C 42.070312 14.03125 44.453125 15.929688 41.78125 17.035156 Z M 41.78125 17.035156 " fill-opacity="1" fill-rule="evenodd"/><g clip-path="url(#217b762ed9)"><path fill="#f4b41a" d="M 44.410156 15.714844 C 43.742188 13.945312 46 12.605469 47.234375 12.6875 C 44.410156 13.816406 46.984375 14.816406 44.410156 15.714844 Z M 44.410156 15.714844 " fill-opacity="1" fill-rule="evenodd"/></g><g clip-path="url(#29e31246e7)"><path fill="#f4b41a" d="M 46.699219 15.609375 C 46.847656 14.0625 49.921875 13.765625 50.816406 14.882812 C 48.320312 13.769531 49.253906 16.421875 46.699219 15.609375 Z M 46.699219 15.609375 " fill-opacity="1" fill-rule="evenodd"/></g><path fill="#f4b41a" d="M 29.503906 30.125 C 31.742188 31.878906 35.742188 29.375 36.589844 26.753906 C 33.96875 31.113281 32.300781 26.21875 29.503906 30.125 Z M 29.503906 30.125 " fill-opacity="1" fill-rule="evenodd"/><path fill="#f4b41a" d="M 31.472656 27.375 C 33.738281 28.695312 37.652344 26.632812 38.25 23.953125 C 35.597656 27.882812 33.867188 23.460938 31.472656 27.375 Z M 31.472656 27.375 " fill-opacity="1" fill-rule="evenodd"/><path fill="#f4b41a" d="M 33.996094 24.214844 C 35.734375 25.726562 39.292969 24.519531 40.726562 21.957031 C 37.589844 25.308594 36.851562 20.875 33.996094 24.214844 Z M 33.996094 24.214844 " fill-opacity="1" fill-rule="evenodd"/><path fill="#f4b41a" d="M 36.503906 21.933594 C 38.488281 23.714844 42.128906 22.105469 43.019531 20.523438 C 39.855469 23.285156 39.484375 19.085938 36.503906 21.933594 Z M 36.503906 21.933594 " fill-opacity="1" fill-rule="evenodd"/><path fill="#f4b41a" d="M 39.640625 19.710938 C 40.847656 21.46875 43.773438 20.882812 45.46875 19.1875 C 41.800781 21.347656 42.816406 17.648438 39.640625 19.710938 Z M 39.640625 19.710938 " fill-opacity="1" fill-rule="evenodd"/><path fill="#f4b41a" d="M 42.28125 18.339844 C 43.027344 19.871094 45.863281 19.542969 47.042969 18.074219 C 43.96875 19.730469 44.957031 16.738281 42.28125 18.339844 Z M 42.28125 18.339844 " fill-opacity="1" fill-rule="evenodd"/><path fill="#f4b41a" d="M 44.832031 17.171875 C 45.445312 18.441406 47.804688 18.320312 48.933594 17.070312 C 46.234375 18.398438 47.207031 15.867188 44.832031 17.171875 Z M 44.832031 17.171875 " fill-opacity="1" fill-rule="evenodd"/><g clip-path="url(#62b0f8f83d)"><path fill="#f4b41a" d="M 25.914062 40.238281 C 25.917969 40.222656 26.660156 34.066406 33.324219 33.308594 C 29.023438 33.1875 25.878906 35.519531 24.96875 40.140625 Z M 25.914062 40.238281 " fill-opacity="1" fill-rule="nonzero"/></g></svg>