<svg xmlns="http://www.w3.org/2000/svg" xmlns:xlink="http://www.w3.org/1999/xlink" width="68" zoomAndPan="magnify" viewBox="0 0 50.879997 50.999998" height="68" preserveAspectRatio="xMidYMid meet" version="1.0"><defs><clipPath id="6f29a737e6"><path d="M 1.046875 12 L 27 12 L 27 40 L 1.046875 40 Z M 1.046875 12 " clip-rule="nonzero"/></clipPath><clipPath id="9048555e87"><path d="M 26 1.714844 L 48 1.714844 L 48 33 L 26 33 Z M 26 1.714844 " clip-rule="nonzero"/></clipPath><clipPath id="0fcdf5602e"><path d="M 18 40 L 28 40 L 28 49.601562 L 18 49.601562 Z M 18 40 " clip-rule="nonzero"/></clipPath></defs><g clip-path="url(#6f29a737e6)"><path fill="#0a2828" d="M 26.382812 35.515625 C 22.332031 31.910156 16.574219 27.566406 10.777344 25.785156 C 9.46875 25.386719 19.011719 30.84375 24.820312 39.09375 C 3.597656 44.476562 1.101562 12.652344 1.101562 12.652344 C 1.101562 12.652344 29.757812 17.125 26.382812 35.515625 " fill-opacity="1" fill-rule="nonzero"/></g><g clip-path="url(#9048555e87)"><path fill="#adff1c" d="M 27.6875 29.507812 C 30.863281 25.113281 35.542969 19.621094 40.816406 16.628906 C 42.007812 15.957031 33.871094 23.351562 29.988281 32.660156 C 51.875 33.324219 47.421875 1.714844 47.421875 1.714844 C 47.421875 1.714844 20.410156 12.285156 27.6875 29.507812 " fill-opacity="1" fill-rule="nonzero"/></g><path fill="#0a2828" d="M 28.773438 34.734375 C 30.925781 36.289062 33.609375 38.574219 35.070312 41.15625 C 35.402344 41.738281 31.785156 37.757812 27.234375 35.859375 C 26.910156 46.5625 42.367188 44.382812 42.367188 44.382812 C 42.367188 44.382812 37.195312 31.175781 28.773438 34.734375 " fill-opacity="1" fill-rule="nonzero"/><g clip-path="url(#0fcdf5602e)"><path fill="#adff1c" d="M 26.609375 41.03125 C 25.273438 42.355469 23.644531 44.253906 22.902344 46.222656 C 22.734375 46.667969 24.832031 43.480469 27.8125 41.652344 C 29.214844 49.113281 18.144531 49.285156 18.144531 49.285156 C 18.144531 49.285156 20.316406 39.464844 26.609375 41.03125 " fill-opacity="1" fill-rule="nonzero"/></g></svg>