<svg xmlns="http://www.w3.org/2000/svg" xmlns:xlink="http://www.w3.org/1999/xlink" width="68" zoomAndPan="magnify" viewBox="0 0 50.879997 50.999998" height="68" preserveAspectRatio="xMidYMid meet" version="1.0"><defs><clipPath id="a3716f6d3f"><path d="M 0 33 L 39 33 L 39 46.9375 L 0 46.9375 Z M 0 33 " clip-rule="nonzero"/></clipPath><clipPath id="2e53deae4d"><path d="M 39 4.289062 L 44 4.289062 L 44 12 L 39 12 Z M 39 4.289062 " clip-rule="nonzero"/></clipPath><clipPath id="9e1d6195d4"><path d="M 45 20 L 50.761719 20 L 50.761719 27 L 45 27 Z M 45 20 " clip-rule="nonzero"/></clipPath></defs><path fill="#0a2828" d="M 30.515625 19.753906 L 29.53125 21.292969 L 28.964844 21.28125 L 28.476562 21.871094 L 28.476562 22.265625 L 27.707031 22.820312 L 25.492188 22.820312 L 25.570312 24.542969 C 25.570312 24.542969 24.949219 20.398438 22.335938 19.222656 L 21.441406 19.449219 C 19.878906 18.226562 17.1875 17.570312 14.628906 18.996094 L 14.492188 19.527344 C 14.492188 19.527344 13.363281 19.742188 13.496094 20.773438 C 13.496094 20.773438 12.582031 21.066406 12.910156 22.3125 C 12.910156 22.3125 12.09375 22.933594 12.457031 23.738281 L 12.511719 24.28125 C 12.820312 21.859375 14.992188 19.519531 17.039062 20.546875 C 17.105469 19.96875 17.535156 19.597656 18.113281 19.609375 C 19.347656 19.621094 20.761719 20.863281 21.269531 21.894531 C 20.570312 21.089844 19.527344 20.390625 18.746094 20.230469 C 17.753906 20.027344 17.640625 20.863281 18.183594 21.519531 C 18.828125 20.253906 20.636719 22.03125 21.464844 23.691406 C 20.445312 22.347656 18.792969 21.464844 18.769531 23.285156 C 19.878906 22.628906 21.113281 24.675781 21.484375 25.945312 C 20.851562 24.664062 18.847656 23.183594 18.804688 25.34375 C 20.039062 25.050781 21.214844 26.644531 21.28125 28.308594 C 20.976562 27.097656 18.632812 24.972656 18.5 27.324219 C 19.484375 26.929688 20.863281 28.613281 20.648438 29.710938 C 20.128906 28.421875 18.511719 27.132812 18.089844 28.851562 C 18.632812 28.546875 19.371094 28.953125 19.6875 29.554688 C 20.5 31.101562 17.898438 31.996094 16.847656 32.03125 C 18.191406 32.28125 19.84375 31.941406 20.839844 31.386719 C 21.859375 30.808594 22.992188 29.722656 23.171875 28.683594 C 23.171875 28.683594 23.882812 28.46875 23.929688 27.730469 L 23.679688 27.054688 L 26.101562 27.054688 C 26.101562 27.054688 26.441406 27.382812 25.851562 28.070312 C 25.851562 28.070312 25.605469 28.410156 26.136719 28.589844 C 26.136719 28.589844 26.179688 30.753906 29.191406 31.09375 C 32.199219 31.429688 33.613281 31.238281 34.894531 30.253906 C 34.894531 30.253906 35.121094 30.027344 35.097656 29.441406 C 35.097656 29.441406 36.207031 28.703125 35.730469 27.992188 C 35.4375 28.332031 34.914062 28.320312 34.632812 28.003906 C 35.3125 28.039062 35.753906 27.617188 36.171875 27.144531 C 36.386719 26.894531 36.441406 26.589844 36.160156 26.386719 C 36.160156 26.386719 36.894531 25.75 36.566406 25.09375 C 36.148438 25.535156 35.777344 26.023438 35.367188 26.464844 C 35.140625 26.714844 34.78125 26.828125 34.484375 26.589844 C 34.800781 26.566406 35.222656 26.285156 34.972656 26.011719 L 34.441406 25.433594 L 35.253906 25.773438 L 36.328125 24.585938 L 36.523438 23.136719 C 36.523438 22.492188 35.730469 22.289062 35.730469 22.289062 C 35.753906 21.722656 35.253906 21.429688 35.253906 21.429688 L 34.960938 22.03125 L 31.429688 21.632812 C 31.53125 21.269531 31.578125 21.167969 32.074219 21.214844 L 32.8125 21.28125 L 32.347656 18.535156 L 31.859375 18.476562 C 31.453125 18.441406 31.203125 18.679688 31.089844 18.964844 C 30.96875 19.359375 31.046875 19.765625 30.515625 19.753906 Z M 32.246094 22.480469 L 34.394531 22.6875 L 34.191406 23.273438 L 32.324219 23.09375 Z M 26.339844 26.089844 L 26.554688 24.699219 L 26.835938 24.890625 Z M 27.980469 25.085938 L 28.285156 25.957031 L 26.679688 26.984375 Z M 27.234375 25.003906 L 27.472656 25.300781 L 26.601562 26.511719 Z M 29.824219 23.363281 L 29.949219 22.902344 L 33.195312 24.078125 Z M 28.953125 24.6875 L 34.894531 24.925781 L 28.816406 25.355469 Z M 29.550781 24.335938 L 29.6875 23.839844 L 34.167969 24.621094 Z M 29.949219 27.042969 C 29.914062 27.742188 29.460938 28.410156 28.625 28.285156 C 29.621094 28.140625 29.460938 27.074219 29.460938 27.042969 Z M 27.289062 27.867188 C 28.296875 29.167969 30.117188 28.953125 30.289062 27.03125 L 31.113281 27.03125 C 30.59375 29.417969 28.136719 29.394531 27.289062 27.867188 Z M 32.96875 26.273438 C 32.9375 25.820312 33.320312 25.695312 33.613281 26.023438 C 34.226562 26.734375 34.40625 27.878906 34.40625 27.878906 C 34.066406 27.132812 33.660156 26.632812 32.96875 26.273438 Z M 32.824219 28.148438 C 32.902344 27.789062 33.253906 27.5625 33.5 27.957031 C 34.066406 28.839844 34.078125 29.710938 34.078125 29.710938 C 33.738281 28.988281 33.410156 28.5 32.824219 28.148438 Z M 23.070312 25.628906 C 24.496094 26.578125 21.90625 28.171875 21.304688 28.570312 C 21.304688 28.570312 23.398438 27.167969 23.070312 25.628906 Z M 22.878906 27.832031 C 23.714844 28.941406 21.441406 29.757812 21 29.914062 C 21 29.902344 22.652344 28.886719 22.878906 27.832031 Z M 22.074219 20.285156 C 22.980469 20.976562 21.984375 21.882812 21.351562 22.3125 C 21.351562 22.3125 22.34375 21.566406 22.074219 20.285156 Z M 22.730469 21.871094 C 24.007812 22.921875 22.222656 23.851562 21.351562 24.292969 C 21.351562 24.292969 23.136719 23.105469 22.730469 21.871094 Z M 23.105469 23.75 C 24.472656 24.542969 22.109375 26.035156 21.65625 26.316406 C 21.65625 26.316406 23.328125 24.890625 23.105469 23.75 Z M 7.140625 28.230469 C 7.558594 28.558594 8.042969 29.03125 8.257812 29.609375 C 8.644531 28.511719 7.851562 27.257812 7.195312 26.726562 C 8.144531 26.917969 8.679688 27.414062 9.3125 28.242188 C 9.402344 27.335938 8.574219 25.832031 7.398438 24.847656 C 8.824219 25.050781 9.34375 26.183594 9.34375 26.183594 C 9.34375 25.0625 8.464844 24.03125 7.207031 23.160156 C 8.554688 23.09375 9.378906 24.214844 9.378906 24.214844 C 9.46875 23.308594 8.847656 21.894531 7.070312 20.839844 C 8.394531 20.570312 9.3125 21.78125 9.3125 21.78125 C 9.097656 20.671875 8.417969 19.6875 6.550781 18.953125 C 7.59375 18.636719 8.53125 18.917969 9.109375 19.359375 C 8.472656 17.957031 7.660156 15.332031 6.042969 14.96875 C 7.21875 14.777344 8.066406 14.84375 9.007812 15.875 L 11.847656 19.292969 L 14.199219 17.660156 L 12.390625 20.796875 L 11.675781 22.050781 L 12.355469 24.496094 L 11.496094 25.527344 L 11.347656 27.945312 L 10.238281 29.496094 L 11.835938 29.632812 L 11.9375 28.582031 C 11.5625 27.167969 11.835938 26.035156 12.492188 24.878906 C 12.117188 27.574219 13.035156 30.59375 15.230469 31.828125 L 5.734375 30.628906 C 4.34375 30.367188 3.167969 29.667969 2.648438 28.445312 C 4.015625 30.109375 6.335938 30.175781 7.523438 29.984375 C 7.523438 29.679688 7.421875 28.714844 7.140625 28.230469 Z M 31.625 19.28125 L 31.917969 19.222656 L 32.019531 20.851562 Z M 30.832031 20.0625 L 30.957031 21.519531 L 29.925781 21.375 Z M 30.832031 20.0625 " fill-opacity="1" fill-rule="evenodd"/><path fill="#0a2828" d="M 19.300781 14.710938 L 20.273438 14.742188 C 20.601562 14.753906 20.625 14.925781 20.660156 15.183594 L 20.898438 17.660156 L 21.621094 17.640625 L 21.417969 14.867188 L 22.742188 15.058594 L 22.96875 17.683594 C 22.96875 17.683594 25.0625 18.601562 25.410156 22.019531 C 25.390625 20.070312 24.777344 18.082031 23.441406 17.582031 L 23.171875 15.128906 L 24.574219 15.332031 C 24.664062 15.601562 25.015625 16.460938 26.011719 16.65625 L 28.285156 16.757812 C 28.578125 16.769531 28.917969 16.710938 29.03125 16.40625 L 29.257812 15.75 L 29.722656 15.773438 L 29.847656 16.679688 L 31.316406 16.8125 L 31.082031 18.578125 L 30.3125 19.449219 L 29.28125 21.011719 L 28.679688 21.035156 L 28.207031 21.679688 L 28.148438 22.121094 L 27.808594 22.46875 L 25.421875 22.46875 C 25.296875 22.019531 24.699219 20.003906 23.679688 18.964844 C 22.628906 17.886719 19.878906 18.214844 19.878906 18.214844 L 19.449219 17.808594 C 19.3125 17.007812 18.632812 16.984375 18.171875 17.027344 L 14.777344 17.300781 L 17.140625 16.371094 L 17.230469 15.648438 L 18.941406 15.332031 Z M 26.046875 17.414062 L 25.421875 17.414062 L 25.988281 21.925781 Z M 27.449219 17.414062 L 26.816406 17.414062 L 26.835938 21.949219 Z M 29.007812 17.414062 L 28.34375 17.414062 L 27.617188 21.996094 Z M 29.007812 17.414062 " fill-opacity="1" fill-rule="evenodd"/><path fill="#0a2828" d="M 7.671875 17.671875 C 5.703125 14.914062 2.953125 17.773438 2.082031 20.242188 C 2.238281 18.839844 2.875 16.859375 3.902344 15.863281 C 5.839844 14.019531 7.46875 16.167969 7.671875 17.671875 Z M 7.671875 17.671875 " fill-opacity="1" fill-rule="evenodd"/><path fill="#0a2828" d="M 5.882812 21.703125 C 5.882812 21.703125 5.804688 20.398438 4.886719 20.308594 C 3.984375 20.21875 2.886719 21.984375 3.191406 24.914062 C 3.496094 27.855469 5.601562 26.203125 5.601562 26.203125 C 5.125 27.503906 3.644531 27.832031 3.042969 26.519531 C 2.804688 26 2.535156 24.980469 2.726562 23.171875 C 3.03125 20.140625 4.289062 19.867188 4.648438 19.8125 C 5.011719 19.765625 5.972656 20.175781 5.882812 21.703125 Z M 5.882812 21.703125 " fill-opacity="1" fill-rule="evenodd"/><path fill="#0a2828" d="M 4.332031 24.316406 C 4.332031 24.316406 4.277344 23.433594 4.546875 22.855469 C 4.761719 22.402344 5.273438 22.222656 5.488281 22.664062 C 5.691406 23.082031 5.613281 23.964844 5.453125 24.40625 L 5.375 23.195312 C 5.375 23.195312 5.070312 23.660156 5.136719 24.292969 C 5.136719 24.292969 4.933594 23.636719 5.203125 22.921875 C 5.191406 22.910156 4.570312 22.515625 4.332031 24.316406 Z M 4.332031 24.316406 " fill-opacity="1" fill-rule="evenodd"/><path fill="#0a2828" d="M 3.519531 28.738281 C 1.257812 27.3125 1.210938 18.90625 4.332031 18.058594 C 5.046875 17.867188 6.054688 18.625 6.503906 19.867188 C 7.242188 21.859375 6.945312 25.34375 6.289062 27.277344 C 6.289062 27.277344 7.058594 22.359375 6.019531 20.265625 C 5.25 18.714844 4.140625 19.15625 3.441406 20.070312 C 1.878906 22.109375 2.296875 26.667969 3.519531 28.738281 Z M 3.519531 28.738281 " fill-opacity="1" fill-rule="evenodd"/><path fill="#0a2828" d="M 19.597656 31.523438 L 17.898438 32.097656 L 46.105469 31.601562 L 34.90625 30.242188 L 26.148438 28.589844 L 25.59375 29.441406 L 22.742188 29.441406 L 20.570312 31.136719 Z M 19.597656 31.523438 " fill-opacity="1" fill-rule="evenodd"/><path fill="#0a2828" d="M 34.214844 20.230469 C 34.214844 20.230469 34.566406 20.535156 34.65625 20.707031 C 34.65625 20.707031 34.203125 21.476562 33.796875 21.667969 C 33.785156 21.667969 34.191406 21.011719 34.214844 20.230469 Z M 34.214844 20.230469 " fill-opacity="1" fill-rule="evenodd"/><path fill="#0a2828" d="M 33.039062 19.5625 L 33.511719 19.878906 C 33.511719 19.878906 33.296875 20.433594 32.914062 20.71875 C 32.925781 20.707031 33.183594 20.050781 33.039062 19.5625 Z M 33.039062 19.5625 " fill-opacity="1" fill-rule="evenodd"/><path fill="#0a2828" d="M 16.042969 26.011719 C 16.042969 26.011719 15.035156 23.386719 16.664062 22.527344 C 16.664062 22.527344 15.261719 21.882812 15.003906 24.246094 C 14.832031 21.542969 17.367188 20.964844 17.546875 24 C 17.546875 24 16.621094 23.421875 16.328125 24.722656 C 16.328125 24.722656 16.394531 23.648438 17.1875 23.648438 C 17.117188 23.398438 16.890625 23.136719 16.621094 23.308594 C 16.292969 23.523438 15.703125 24.316406 16.042969 26.011719 Z M 16.042969 26.011719 " fill-opacity="1" fill-rule="evenodd"/><path fill="#0a2828" d="M 7.570312 14.664062 C 8.078125 14.710938 8.585938 14.753906 9.097656 14.789062 L 11.722656 18.171875 L 13.792969 17.152344 L 13.792969 17.140625 L 13.929688 17.074219 L 13.929688 16.460938 L 16.609375 15.5 L 16.609375 13.972656 L 17.46875 13.285156 L 18.035156 13.285156 C 18.035156 13.101562 18.058594 11.835938 18.070312 11.335938 C 18.082031 10.804688 18.554688 10.679688 18.554688 10.679688 L 21.453125 9.878906 L 21.441406 13.226562 L 18.726562 13.429688 C 18.191406 13.464844 17.355469 13.859375 17.199219 14.347656 L 19.515625 13.984375 C 19.539062 13.984375 22.640625 14.460938 24.078125 14.664062 C 24.664062 14.730469 24.710938 15.117188 24.710938 15.117188 L 31.339844 15.636719 L 31.542969 15.355469 L 30.402344 14.6875 L 25.445312 13.726562 L 25.445312 12.277344 L 25.277344 12.265625 L 25.253906 11.359375 C 25.164062 10.351562 26 9.933594 26 9.933594 L 26.667969 11.777344 C 27.007812 12.085938 27.378906 11.847656 27.449219 11.699219 C 27.503906 11.542969 27.0625 9.359375 26.722656 8.972656 C 26.382812 8.589844 25.808594 8.960938 25.808594 8.960938 L 25.886719 9.640625 C 25.605469 8.679688 24.878906 9.390625 24.878906 9.390625 L 22.855469 9.039062 L 23.464844 7.886719 L 23.589844 7.660156 L 22.128906 7.082031 L 20.898438 7.183594 L 16.167969 6.472656 L 15.953125 6.210938 L 12.46875 6.167969 L 12.398438 5.894531 L 10.816406 6.007812 C 9.898438 6.078125 10.046875 6.824219 10.046875 6.824219 C 10.046875 6.824219 8.65625 7.105469 8.113281 7.433594 C 7.582031 7.773438 7.625 8.621094 7.625 8.621094 L 7.773438 8.691406 C 7.863281 9.132812 8.429688 9.4375 8.429688 9.4375 L 8.042969 13.304688 L 7.785156 13.632812 L 6.742188 13.632812 L 6.84375 11.394531 L 5.191406 11.722656 L 5.183594 11.960938 L 6.503906 11.777344 L 5.160156 12.300781 L 5.148438 12.457031 L 6.5625 12.265625 L 5.136719 12.820312 L 5.125 12.976562 L 6.585938 12.785156 L 5.101562 13.363281 L 5.089844 13.578125 L 6.5625 13.386719 L 5.070312 13.972656 C 5.082031 14.132812 5.160156 14.371094 5.5 14.425781 C 6.042969 14.515625 6.324219 14.449219 6.324219 14.449219 L 6.6875 14.164062 L 7.34375 14.222656 L 7.320312 14.402344 C 7.308594 14.585938 7.410156 14.640625 7.570312 14.664062 Z M 22.074219 7.410156 L 23.214844 7.839844 L 21.710938 7.910156 Z M 7.941406 8.507812 L 10.125 7.421875 L 10.207031 7.910156 Z M 15.773438 6.550781 L 16.269531 7.175781 L 12.289062 6.484375 Z M 20.976562 7.511719 L 21.238281 8 L 18.238281 7.195312 Z M 13.125 7.898438 L 13.679688 7.863281 L 13.703125 9.164062 Z M 13.273438 10.160156 L 12.695312 10.171875 L 12.695312 16.113281 L 12.976562 16.113281 L 12.976562 16.769531 L 12.75 16.882812 L 12.480469 16.667969 L 12.480469 9.277344 L 12.660156 9.140625 L 13.191406 9.140625 Z M 11.765625 6.472656 C 11.675781 6.574219 11.609375 6.734375 11.609375 6.867188 L 11.652344 9.039062 L 10.984375 9.121094 L 10.816406 9.347656 L 11.960938 9.867188 L 11.9375 8.351562 L 12.230469 8.226562 C 12.503906 8.125 12.617188 8.28125 12.617188 8.28125 L 12.851562 8.78125 L 12.558594 8.746094 L 12.332031 9.03125 L 12.332031 16.65625 L 11.878906 16.429688 L 10.804688 14.449219 C 10.578125 14.03125 10.113281 13.828125 9.617188 13.859375 L 8.8125 13.859375 C 8.835938 13.464844 8.960938 10.761719 8.996094 10.238281 C 9.027344 9.71875 9.492188 9.574219 9.492188 9.574219 L 10.648438 9.097656 L 10.308594 7.21875 C 10.308594 7.230469 11.03125 6.527344 11.765625 6.472656 Z M 13.929688 10.238281 C 13.929688 10.238281 15.398438 10.285156 16.179688 10.421875 C 16.960938 10.558594 17.003906 11.246094 17.003906 11.246094 L 17.0625 12.988281 L 16.121094 13.644531 L 16.121094 14.710938 L 13.9375 15.410156 L 13.9375 10.238281 Z M 22.765625 13.351562 L 22.640625 10.160156 L 22.980469 9.945312 L 22.96875 10.238281 L 24.496094 10.015625 C 24.066406 10.863281 24.222656 12.242188 24.222656 12.242188 L 24.066406 12.59375 C 23.554688 12.761719 23.410156 13.261719 23.363281 13.429688 C 23.160156 13.398438 22.96875 13.375 22.765625 13.351562 Z M 14.019531 7.910156 L 21.484375 8.792969 L 13.996094 8.746094 Z M 8.734375 9.5625 L 8.757812 9.152344 L 10.320312 8.917969 Z M 8.734375 9.5625 " fill-opacity="1" fill-rule="evenodd"/><path fill="#0a2828" d="M 16.496094 21.667969 C 15.863281 21.609375 15.34375 21.824219 14.933594 22.1875 C 13.894531 23.117188 13.566406 25.140625 13.722656 26.464844 C 13.882812 27.710938 14.550781 28.355469 15.296875 28.445312 C 16.191406 28.546875 17.207031 27.878906 17.640625 26.476562 C 17.300781 29.496094 14.144531 29.8125 13.476562 27.359375 C 13.292969 26.703125 13.25 25.84375 13.394531 24.699219 C 13.894531 20.851562 16.113281 21.394531 16.496094 21.667969 Z M 16.496094 21.667969 " fill-opacity="1" fill-rule="evenodd"/><path fill="#0a2828" d="M 16.769531 27.289062 C 16.496094 27.371094 14.765625 27.597656 14.800781 25.75 C 14.347656 26.757812 15.464844 28.367188 16.769531 27.289062 Z M 16.769531 27.289062 " fill-opacity="1" fill-rule="evenodd"/><path fill="#0a2828" d="M 46.105469 31.601562 C 29.113281 29.960938 11.246094 32.640625 11.246094 32.640625 C 27.84375 33.027344 39.394531 36.511719 43.21875 38.378906 Z M 46.105469 31.601562 " fill-opacity="1" fill-rule="evenodd"/><g clip-path="url(#a3716f6d3f)"><path fill="#adff1c" d="M 0 34.078125 C 0 34.078125 22.277344 32.628906 38.503906 40.175781 L 33.703125 46.695312 C 33.703125 46.695312 26.261719 39.136719 0 34.078125 Z M 0 34.078125 " fill-opacity="1" fill-rule="evenodd"/></g><path fill="#adff1c" d="M 41.003906 27.617188 C 42.316406 26.171875 43.050781 24.449219 43.300781 22.664062 C 43.546875 20.898438 43.3125 19.078125 42.6875 17.390625 C 42.066406 15.695312 41.035156 14.144531 39.703125 12.945312 C 38.289062 11.664062 36.523438 10.761719 34.496094 10.476562 L 34.597656 9.742188 C 36.78125 10.046875 38.683594 11.007812 40.199219 12.390625 C 41.625 13.679688 42.710938 15.332031 43.378906 17.128906 C 44.046875 18.929688 44.296875 20.875 44.035156 22.765625 C 43.761719 24.699219 42.972656 26.554688 41.546875 28.117188 Z M 41.003906 27.617188 " fill-opacity="1" fill-rule="evenodd"/><g clip-path="url(#2e53deae4d)"><path fill="#adff1c" d="M 40.367188 4.300781 C 37.949219 7.027344 39.65625 9.957031 41.476562 11.550781 L 40.808594 7.5 L 42.40625 11.902344 C 44.171875 9.265625 42.859375 5.792969 40.367188 4.300781 Z M 40.367188 4.300781 " fill-opacity="1" fill-rule="evenodd"/></g><path fill="#adff1c" d="M 28.90625 10.273438 C 30.742188 13.429688 34.054688 12.730469 36.148438 11.496094 L 32.085938 10.863281 L 36.769531 10.726562 C 34.824219 8.226562 31.113281 8.375 28.90625 10.273438 Z M 28.90625 10.273438 " fill-opacity="1" fill-rule="evenodd"/><path fill="#adff1c" d="M 48.730469 10.894531 C 45.132812 11.472656 44.589844 14.820312 44.996094 17.222656 L 47.042969 13.65625 L 45.484375 18.070312 C 48.527344 17.140625 49.714844 13.632812 48.730469 10.894531 Z M 48.730469 10.894531 " fill-opacity="1" fill-rule="evenodd"/><g clip-path="url(#9e1d6195d4)"><path fill="#adff1c" d="M 50.847656 20.492188 C 47.25 19.855469 45.652344 22.84375 45.246094 25.242188 L 48.34375 22.550781 L 45.425781 26.214844 C 48.605469 26.339844 50.878906 23.410156 50.847656 20.492188 Z M 50.847656 20.492188 " fill-opacity="1" fill-rule="evenodd"/></g></svg>