<svg xmlns="http://www.w3.org/2000/svg" xmlns:xlink="http://www.w3.org/1999/xlink" width="68" zoomAndPan="magnify" viewBox="0 0 50.879997 50.999998" height="68" preserveAspectRatio="xMidYMid meet" version="1.0"><defs><clipPath id="7a70a10e52"><path d="M 21 31 L 48 31 L 48 49.441406 L 21 49.441406 Z M 21 31 " clip-rule="nonzero"/></clipPath><clipPath id="928cfc45d7"><path d="M 28 33 L 47 33 L 47 49.441406 L 28 49.441406 Z M 28 33 " clip-rule="nonzero"/></clipPath><clipPath id="8fb4b92a04"><path d="M 16 1.554688 L 22 1.554688 L 22 6 L 16 6 Z M 16 1.554688 " clip-rule="nonzero"/></clipPath><clipPath id="3266d119f4"><path d="M 28 1.554688 L 34 1.554688 L 34 6 L 28 6 Z M 28 1.554688 " clip-rule="nonzero"/></clipPath><clipPath id="2cbc1c834a"><path d="M 47 22 L 50.761719 22 L 50.761719 26 L 47 26 Z M 47 22 " clip-rule="nonzero"/></clipPath></defs><path fill="#adff1c" d="M 17.859375 40.535156 C 18.605469 39.613281 19.402344 38.726562 20.246094 37.882812 C 15.375 34.195312 9.703125 32.007812 3.660156 31.46875 C 3.699219 31.671875 3.742188 31.875 3.789062 32.074219 C 5.03125 32.457031 6.257812 32.910156 7.464844 33.441406 C 11.355469 35.148438 14.847656 37.535156 17.859375 40.535156 Z M 17.859375 40.535156 " fill-opacity="1" fill-rule="nonzero"/><g clip-path="url(#7a70a10e52)"><path fill="#adff1c" d="M 37.628906 36.6875 C 40.558594 34.648438 43.746094 33.101562 47.097656 32.074219 C 47.140625 31.871094 47.183594 31.671875 47.222656 31.46875 C 36.0625 32.46875 26.332031 39.058594 21.261719 49.027344 C 22.613281 49.285156 24.011719 49.421875 25.441406 49.421875 C 25.832031 49.421875 26.21875 49.410156 26.601562 49.390625 C 29.152344 44.320312 32.917969 39.96875 37.628906 36.6875 Z M 37.628906 36.6875 " fill-opacity="1" fill-rule="nonzero"/></g><path fill="#ffc002" d="M 19.585938 48.636719 C 22.136719 43.5 25.933594 39.09375 30.695312 35.777344 C 35.691406 32.296875 41.445312 30.246094 47.484375 29.769531 C 47.488281 29.734375 47.492188 29.699219 47.496094 29.664062 C 46.480469 29.570312 45.460938 29.523438 44.441406 29.523438 C 32.089844 29.523438 21.09375 36.316406 15.550781 47.097656 C 16.832031 47.738281 18.179688 48.253906 19.585938 48.636719 Z M 19.585938 48.636719 " fill-opacity="1" fill-rule="nonzero"/><path fill="#ffc002" d="M 6.441406 29.523438 C 5.421875 29.523438 4.402344 29.570312 3.390625 29.664062 C 3.394531 29.699219 3.398438 29.734375 3.402344 29.769531 C 6.410156 30.007812 9.359375 30.636719 12.195312 31.652344 C 15.535156 32.847656 18.652344 34.550781 21.472656 36.714844 C 22.269531 35.992188 23.105469 35.300781 23.976562 34.652344 C 18.746094 31.292969 12.710938 29.523438 6.441406 29.523438 Z M 6.441406 29.523438 " fill-opacity="1" fill-rule="nonzero"/><path fill="#0a2828" d="M 32.757812 26.90625 C 32.710938 26.828125 32.65625 26.757812 32.59375 26.691406 C 32.574219 26.671875 32.554688 26.648438 32.53125 26.628906 C 32.53125 26.628906 32.53125 26.628906 32.527344 26.625 C 32.484375 26.585938 32.441406 26.546875 32.390625 26.511719 C 32.367188 26.496094 32.34375 26.480469 32.324219 26.464844 C 32.320312 26.460938 32.316406 26.460938 32.308594 26.457031 C 32.289062 26.445312 32.269531 26.429688 32.246094 26.417969 C 32.242188 26.417969 32.238281 26.414062 32.234375 26.414062 C 32.1875 26.386719 32.132812 26.359375 32.082031 26.335938 C 32.074219 26.335938 32.070312 26.332031 32.066406 26.332031 C 32.042969 26.324219 32.023438 26.316406 32 26.308594 C 31.992188 26.304688 31.988281 26.304688 31.980469 26.300781 C 31.957031 26.292969 31.933594 26.285156 31.90625 26.277344 C 31.902344 26.277344 31.902344 26.277344 31.898438 26.277344 C 31.871094 26.269531 31.84375 26.261719 31.8125 26.257812 C 31.808594 26.257812 31.804688 26.253906 31.800781 26.253906 C 31.777344 26.25 31.75 26.246094 31.726562 26.242188 C 31.71875 26.242188 31.710938 26.242188 31.703125 26.238281 C 31.683594 26.238281 31.660156 26.234375 31.636719 26.234375 C 31.628906 26.234375 31.621094 26.230469 31.617188 26.230469 C 31.585938 26.230469 31.554688 26.230469 31.527344 26.230469 C 31.496094 26.230469 31.464844 26.230469 31.4375 26.230469 C 31.429688 26.230469 31.421875 26.234375 31.417969 26.234375 C 31.394531 26.234375 31.371094 26.238281 31.347656 26.238281 C 31.339844 26.242188 31.332031 26.242188 31.324219 26.242188 C 31.300781 26.246094 31.277344 26.25 31.25 26.253906 C 31.246094 26.253906 31.242188 26.257812 31.238281 26.257812 C 31.210938 26.261719 31.183594 26.269531 31.152344 26.277344 C 31.152344 26.277344 31.148438 26.277344 31.148438 26.277344 C 31.121094 26.285156 31.097656 26.292969 31.070312 26.300781 C 31.066406 26.304688 31.058594 26.304688 31.054688 26.308594 C 31.03125 26.316406 31.007812 26.324219 30.988281 26.332031 C 30.980469 26.332031 30.976562 26.335938 30.972656 26.335938 C 30.917969 26.359375 30.867188 26.386719 30.816406 26.414062 C 30.8125 26.414062 30.8125 26.414062 30.808594 26.417969 C 30.785156 26.429688 30.761719 26.445312 30.738281 26.457031 C 30.738281 26.460938 30.734375 26.460938 30.730469 26.464844 C 30.554688 26.578125 30.40625 26.726562 30.292969 26.90625 C 30.144531 27.132812 30.058594 27.402344 30.058594 27.695312 C 30.058594 28.503906 30.71875 29.160156 31.527344 29.160156 C 32.335938 29.160156 32.992188 28.503906 32.992188 27.695312 C 32.992188 27.402344 32.90625 27.132812 32.761719 26.90625 Z M 32.757812 26.90625 " fill-opacity="1" fill-rule="nonzero"/><path fill="#0a2828" d="M 41.75 26.933594 C 41.75 17.929688 34.449219 10.625 25.441406 10.625 C 16.433594 10.625 9.132812 17.929688 9.132812 26.933594 C 9.132812 27.277344 9.144531 27.621094 9.167969 27.957031 C 14.761719 28.402344 20.148438 30.207031 24.878906 33.246094 L 25.414062 33.589844 C 27.515625 32.183594 29.769531 31.019531 32.144531 30.109375 C 31.945312 30.160156 31.738281 30.1875 31.527344 30.1875 C 30.148438 30.1875 29.03125 29.070312 29.03125 27.695312 C 29.03125 27.417969 29.078125 27.152344 29.160156 26.90625 L 22.78125 26.90625 C 22.78125 28.71875 21.3125 30.1875 19.496094 30.1875 C 17.683594 30.1875 16.214844 28.71875 16.214844 26.90625 C 16.214844 26.175781 16.449219 25.503906 16.851562 24.960938 L 16.851562 18.410156 C 16.851562 17.738281 17.398438 17.191406 18.070312 17.191406 L 24.4375 17.191406 C 24.847656 17.191406 25.230469 17.398438 25.457031 17.742188 L 28.195312 21.917969 L 28.195312 17.753906 L 29.96875 17.042969 L 30.382812 18.074219 L 29.300781 18.503906 L 29.300781 22.046875 L 32.246094 22.046875 C 33.140625 22.046875 33.867188 22.773438 33.867188 23.667969 L 33.867188 26.839844 C 33.964844 27.105469 34.019531 27.394531 34.019531 27.695312 C 34.019531 28.671875 33.457031 29.515625 32.640625 29.925781 C 35.523438 28.875 38.574219 28.203125 41.71875 27.957031 C 41.738281 27.621094 41.75 27.277344 41.75 26.933594 Z M 41.75 26.933594 " fill-opacity="1" fill-rule="nonzero"/><path fill="#0a2828" d="M 24.070312 19.089844 L 18.75 19.089844 L 18.75 22.171875 L 26.089844 22.171875 Z M 24.070312 19.089844 " fill-opacity="1" fill-rule="nonzero"/><path fill="#0a2828" d="M 19.496094 24.648438 C 18.253906 24.648438 17.242188 25.660156 17.242188 26.90625 C 17.242188 28.148438 18.253906 29.160156 19.496094 29.160156 C 20.742188 29.160156 21.753906 28.148438 21.753906 26.90625 C 21.753906 25.660156 20.742188 24.648438 19.496094 24.648438 Z M 19.496094 24.648438 " fill-opacity="1" fill-rule="nonzero"/><g clip-path="url(#928cfc45d7)"><path fill="#0a2828" d="M 28.582031 49.199219 C 37.085938 47.992188 44.035156 41.96875 46.582031 33.976562 C 38.945312 36.570312 32.511719 41.941406 28.582031 49.199219 Z M 28.582031 49.199219 " fill-opacity="1" fill-rule="nonzero"/></g><path fill="#0a2828" d="M 16.828125 41.871094 C 13.246094 38.25 8.976562 35.582031 4.300781 33.984375 C 5.960938 39.183594 9.484375 43.550781 14.089844 46.296875 C 14.890625 44.75 15.804688 43.269531 16.828125 41.871094 Z M 16.828125 41.871094 " fill-opacity="1" fill-rule="nonzero"/><path fill="#0a2828" d="M 3.257812 27.234375 C 3.160156 24.332031 3.671875 21.390625 4.742188 18.660156 C 5.277344 17.296875 5.957031 15.984375 6.753906 14.75 C 7.550781 13.511719 8.480469 12.359375 9.507812 11.304688 C 11.566406 9.1875 14.066406 7.5 16.789062 6.347656 C 19.519531 5.199219 22.480469 4.613281 25.441406 4.605469 C 28.402344 4.613281 31.367188 5.199219 34.09375 6.347656 C 36.820312 7.5 39.316406 9.1875 41.375 11.300781 C 42.402344 12.359375 43.332031 13.511719 44.132812 14.746094 C 44.929688 15.984375 45.605469 17.296875 46.144531 18.660156 C 47.210938 21.390625 47.726562 24.328125 47.628906 27.234375 C 47.527344 24.332031 46.898438 21.460938 45.738281 18.828125 C 45.164062 17.511719 44.464844 16.25 43.644531 15.074219 C 42.828125 13.894531 41.90625 12.792969 40.882812 11.792969 L 40.097656 11.066406 C 39.824219 10.835938 39.554688 10.601562 39.277344 10.375 C 38.992188 10.160156 38.714844 9.9375 38.429688 9.722656 C 38.136719 9.519531 37.847656 9.308594 37.550781 9.113281 C 36.359375 8.328125 35.089844 7.660156 33.769531 7.125 C 32.453125 6.589844 31.082031 6.175781 29.6875 5.902344 C 28.289062 5.628906 26.867188 5.496094 25.441406 5.496094 C 24.019531 5.492188 22.59375 5.628906 21.199219 5.902344 C 19.800781 6.171875 18.433594 6.589844 17.113281 7.125 C 15.792969 7.660156 14.523438 8.328125 13.332031 9.113281 C 12.144531 9.898438 11.023438 10.796875 10 11.792969 C 7.957031 13.792969 6.292969 16.191406 5.144531 18.828125 C 3.984375 21.460938 3.355469 24.332031 3.257812 27.234375 Z M 3.257812 27.234375 " fill-opacity="1" fill-rule="nonzero"/><path fill="#0a2828" d="M 19.003906 6.96875 C 19.699219 5.96875 20.785156 5.402344 21.910156 5.328125 C 22.234375 6.410156 22.082031 7.625 21.386719 8.625 C 20.691406 9.625 19.605469 10.191406 18.480469 10.265625 C 18.15625 9.183594 18.308594 7.96875 19.003906 6.96875 Z M 19.003906 6.96875 " fill-opacity="1" fill-rule="nonzero"/><g clip-path="url(#8fb4b92a04)"><path fill="#0a2828" d="M 18.613281 4.804688 C 19.613281 5.5 20.828125 5.652344 21.910156 5.328125 C 21.835938 4.203125 21.269531 3.117188 20.269531 2.421875 C 19.269531 1.726562 18.054688 1.574219 16.972656 1.898438 C 17.046875 3.027344 17.613281 4.109375 18.613281 4.804688 Z M 18.613281 4.804688 " fill-opacity="1" fill-rule="nonzero"/></g><path fill="#0a2828" d="M 12.488281 10.265625 C 12.789062 9.167969 13.570312 8.332031 14.542969 7.914062 C 15.164062 8.769531 15.40625 9.886719 15.105469 10.984375 C 14.804688 12.085938 14.023438 12.921875 13.054688 13.339844 C 12.429688 12.484375 12.1875 11.367188 12.488281 10.265625 Z M 12.488281 10.265625 " fill-opacity="1" fill-rule="nonzero"/><path fill="#0a2828" d="M 11.472656 8.480469 C 12.570312 8.78125 13.6875 8.539062 14.542969 7.914062 C 14.125 6.945312 13.289062 6.164062 12.1875 5.863281 C 11.089844 5.5625 9.972656 5.804688 9.117188 6.425781 C 9.535156 7.398438 10.371094 8.179688 11.472656 8.480469 Z M 11.472656 8.480469 " fill-opacity="1" fill-rule="nonzero"/><path fill="#0a2828" d="M 8.257812 14.507812 C 8.230469 13.445312 8.699219 12.488281 9.453125 11.855469 C 10.238281 12.449219 10.753906 13.382812 10.78125 14.441406 C 10.808594 15.5 10.339844 16.457031 9.585938 17.089844 C 8.800781 16.496094 8.285156 15.566406 8.257812 14.507812 Z M 8.257812 14.507812 " fill-opacity="1" fill-rule="nonzero"/><path fill="#0a2828" d="M 6.867188 13.1875 C 7.925781 13.160156 8.859375 12.640625 9.453125 11.855469 C 8.820312 11.105469 7.863281 10.632812 6.800781 10.660156 C 5.742188 10.691406 4.808594 11.207031 4.21875 11.992188 C 4.851562 12.746094 5.808594 13.214844 6.867188 13.1875 Z M 6.867188 13.1875 " fill-opacity="1" fill-rule="nonzero"/><path fill="#0a2828" d="M 5.472656 19.515625 C 5.167969 18.582031 5.332031 17.609375 5.832031 16.847656 C 6.6875 17.164062 7.394531 17.855469 7.699219 18.789062 C 8.003906 19.722656 7.839844 20.695312 7.335938 21.457031 C 6.484375 21.136719 5.777344 20.449219 5.472656 19.515625 Z M 5.472656 19.515625 " fill-opacity="1" fill-rule="nonzero"/><path fill="#0a2828" d="M 3.894531 18.710938 C 4.824219 18.40625 5.515625 17.699219 5.832031 16.847656 C 5.074219 16.347656 4.101562 16.183594 3.167969 16.488281 C 2.234375 16.792969 1.542969 17.496094 1.226562 18.351562 C 1.988281 18.851562 2.960938 19.015625 3.894531 18.710938 Z M 3.894531 18.710938 " fill-opacity="1" fill-rule="nonzero"/><path fill="#0a2828" d="M 4.050781 25.542969 C 3.527344 24.804688 3.40625 23.90625 3.640625 23.101562 C 4.476562 23.148438 5.285156 23.5625 5.804688 24.300781 C 6.328125 25.039062 6.449219 25.9375 6.214844 26.742188 C 5.378906 26.695312 4.570312 26.277344 4.050781 25.542969 Z M 4.050781 25.542969 " fill-opacity="1" fill-rule="nonzero"/><path fill="#0a2828" d="M 2.441406 25.265625 C 3.179688 24.742188 3.59375 23.9375 3.640625 23.101562 C 2.835938 22.867188 1.9375 22.988281 1.199219 23.507812 C 0.460938 24.027344 0.046875 24.835938 0 25.671875 C 0.804688 25.90625 1.703125 25.785156 2.441406 25.265625 Z M 2.441406 25.265625 " fill-opacity="1" fill-rule="nonzero"/><path fill="#0a2828" d="M 31.878906 6.96875 C 31.183594 5.96875 30.101562 5.402344 28.972656 5.328125 C 28.648438 6.410156 28.800781 7.625 29.496094 8.625 C 30.191406 9.625 31.277344 10.191406 32.40625 10.265625 C 32.730469 9.183594 32.574219 7.96875 31.878906 6.96875 Z M 31.878906 6.96875 " fill-opacity="1" fill-rule="nonzero"/><g clip-path="url(#3266d119f4)"><path fill="#0a2828" d="M 32.269531 4.804688 C 31.269531 5.5 30.054688 5.652344 28.972656 5.328125 C 29.046875 4.203125 29.613281 3.117188 30.613281 2.421875 C 31.613281 1.726562 32.828125 1.574219 33.910156 1.898438 C 33.835938 3.027344 33.269531 4.109375 32.269531 4.804688 Z M 32.269531 4.804688 " fill-opacity="1" fill-rule="nonzero"/></g><path fill="#0a2828" d="M 38.394531 10.265625 C 38.09375 9.167969 37.3125 8.332031 36.34375 7.914062 C 35.71875 8.769531 35.476562 9.886719 35.777344 10.984375 C 36.078125 12.085938 36.859375 12.921875 37.832031 13.339844 C 38.453125 12.484375 38.695312 11.367188 38.394531 10.265625 Z M 38.394531 10.265625 " fill-opacity="1" fill-rule="nonzero"/><path fill="#0a2828" d="M 39.414062 8.480469 C 38.316406 8.78125 37.195312 8.539062 36.34375 7.914062 C 36.757812 6.945312 37.597656 6.164062 38.695312 5.863281 C 39.792969 5.5625 40.910156 5.804688 41.765625 6.425781 C 41.347656 7.398438 40.511719 8.179688 39.414062 8.480469 Z M 39.414062 8.480469 " fill-opacity="1" fill-rule="nonzero"/><path fill="#0a2828" d="M 42.628906 14.507812 C 42.65625 13.445312 42.1875 12.488281 41.433594 11.855469 C 40.648438 12.449219 40.128906 13.382812 40.101562 14.441406 C 40.074219 15.5 40.542969 16.457031 41.296875 17.089844 C 42.082031 16.496094 42.601562 15.566406 42.628906 14.507812 Z M 42.628906 14.507812 " fill-opacity="1" fill-rule="nonzero"/><path fill="#0a2828" d="M 44.015625 13.1875 C 42.957031 13.160156 42.023438 12.640625 41.433594 11.855469 C 42.066406 11.105469 43.023438 10.632812 44.082031 10.660156 C 45.140625 10.691406 46.074219 11.207031 46.667969 11.992188 C 46.035156 12.746094 45.078125 13.214844 44.015625 13.1875 Z M 44.015625 13.1875 " fill-opacity="1" fill-rule="nonzero"/><path fill="#0a2828" d="M 45.410156 19.515625 C 45.714844 18.582031 45.550781 17.609375 45.050781 16.847656 C 44.195312 17.164062 43.492188 17.855469 43.1875 18.789062 C 42.882812 19.722656 43.046875 20.695312 43.546875 21.457031 C 44.398438 21.136719 45.105469 20.449219 45.410156 19.515625 Z M 45.410156 19.515625 " fill-opacity="1" fill-rule="nonzero"/><path fill="#0a2828" d="M 46.992188 18.710938 C 46.058594 18.40625 45.367188 17.699219 45.050781 16.847656 C 45.808594 16.347656 46.785156 16.183594 47.71875 16.488281 C 48.648438 16.792969 49.339844 17.496094 49.65625 18.351562 C 48.898438 18.851562 47.925781 19.015625 46.992188 18.710938 Z M 46.992188 18.710938 " fill-opacity="1" fill-rule="nonzero"/><path fill="#0a2828" d="M 46.835938 25.542969 C 47.355469 24.804688 47.476562 23.90625 47.242188 23.101562 C 46.40625 23.148438 45.597656 23.5625 45.078125 24.300781 C 44.554688 25.039062 44.4375 25.9375 44.667969 26.742188 C 45.507812 26.695312 46.3125 26.277344 46.835938 25.542969 Z M 46.835938 25.542969 " fill-opacity="1" fill-rule="nonzero"/><g clip-path="url(#2cbc1c834a)"><path fill="#0a2828" d="M 48.441406 25.265625 C 47.703125 24.742188 47.289062 23.9375 47.242188 23.101562 C 48.046875 22.867188 48.945312 22.988281 49.683594 23.507812 C 50.421875 24.027344 50.835938 24.835938 50.882812 25.671875 C 50.078125 25.90625 49.179688 25.785156 48.441406 25.265625 Z M 48.441406 25.265625 " fill-opacity="1" fill-rule="nonzero"/></g></svg>