<svg xmlns="http://www.w3.org/2000/svg" xmlns:xlink="http://www.w3.org/1999/xlink" width="68" zoomAndPan="magnify" viewBox="0 0 50.879997 50.999998" height="68" preserveAspectRatio="xMidYMid meet" version="1.0"><defs><clipPath id="820d352869"><path d="M 0 1.238281 L 43 1.238281 L 43 48 L 0 48 Z M 0 1.238281 " clip-rule="nonzero"/></clipPath><clipPath id="630d189bff"><path d="M 10 5 L 50.761719 5 L 50.761719 23 L 10 23 Z M 10 5 " clip-rule="nonzero"/></clipPath><clipPath id="a2c13d642d"><path d="M 8 48 L 41 48 L 41 49.871094 L 8 49.871094 Z M 8 48 " clip-rule="nonzero"/></clipPath></defs><path fill="#0a2828" d="M 34.847656 21.234375 C 30.382812 22.425781 27.035156 27.085938 26.070312 31.480469 C 25.460938 27.519531 27.003906 23.59375 29.945312 20.871094 C 32.890625 18.15625 37.417969 16.796875 41.300781 17.71875 C 35.457031 21.085938 39.375 31.167969 27.347656 31.3125 C 28.464844 27.367188 30.921875 23.335938 34.847656 21.234375 " fill-opacity="1" fill-rule="evenodd"/><path fill="#adff1c" d="M 35.4375 34.949219 C 32.566406 34.183594 28.671875 35.808594 26.09375 37.851562 C 26.339844 41.042969 26.226562 44.191406 25.988281 46.8125 C 30.785156 46.855469 34.496094 47.113281 34.496094 47.425781 C 34.496094 47.765625 30.113281 48.046875 24.703125 48.046875 C 19.296875 48.046875 14.914062 47.765625 14.914062 47.425781 C 14.914062 47.101562 18.738281 46.84375 23.636719 46.8125 C 23.980469 44.472656 24.433594 41.527344 24.371094 39.230469 C 24.195312 32.566406 22.703125 25.96875 15.253906 23.976562 C 17.070312 24.953125 18.589844 26.289062 19.835938 27.84375 C 21.472656 29.902344 22.496094 32.390625 22.777344 35.023438 C 10.4375 34.492188 14.46875 23.769531 8.167969 20.144531 C 12.4375 19.128906 17.398438 20.621094 20.621094 23.59375 C 23.980469 26.703125 25.460938 31.726562 25.988281 36.773438 C 27.542969 34.855469 30.121094 33.324219 32.296875 32.824219 C 35.304688 32.140625 38.835938 32.980469 41.085938 35.105469 C 35.894531 35.09375 34.621094 43.332031 26.558594 38.792969 C 28.828125 36.585938 32.007812 34.847656 35.4375 34.949219 " fill-opacity="1" fill-rule="evenodd"/><g clip-path="url(#820d352869)"><path fill="#0a2828" d="M 2.96875 27.996094 C 2.96875 14.488281 13.917969 3.535156 27.429688 3.535156 C 33.023438 3.535156 38.183594 5.421875 42.308594 8.582031 C 37.832031 4.042969 31.605469 1.238281 24.726562 1.238281 C 11.082031 1.238281 0.015625 12.300781 0.015625 25.945312 C 0.015625 35.25 5.152344 43.351562 12.75 47.570312 C 6.8125 43.101562 2.96875 35.996094 2.96875 27.996094 " fill-opacity="1" fill-rule="evenodd"/></g><g clip-path="url(#630d189bff)"><path fill="#adff1c" d="M 20.902344 7.941406 C 25.253906 7.070312 29.792969 7.246094 34.132812 8.507812 C 41.3125 10.601562 47.351562 15.503906 50.863281 22.113281 C 48.386719 14.539062 42.265625 8.332031 33.996094 6.125 C 25.140625 3.753906 16.105469 6.582031 10.148438 12.738281 C 10.964844 12.09375 11.816406 11.515625 12.707031 10.984375 C 15.214844 9.484375 17.992188 8.449219 20.902344 7.941406 " fill-opacity="1" fill-rule="evenodd"/></g><g clip-path="url(#a2c13d642d)"><path fill="#0a2828" d="M 24.714844 48.65625 C 33.429688 48.65625 40.492188 48.90625 40.492188 49.207031 C 40.492188 49.507812 33.429688 49.753906 24.714844 49.753906 C 16 49.753906 8.9375 49.507812 8.9375 49.207031 C 8.9375 48.90625 16 48.65625 24.714844 48.65625 " fill-opacity="1" fill-rule="evenodd"/></g></svg>