<svg xmlns="http://www.w3.org/2000/svg" xmlns:xlink="http://www.w3.org/1999/xlink" width="68" zoomAndPan="magnify" viewBox="0 0 50.879997 50.999998" height="68" preserveAspectRatio="xMidYMid meet" version="1.0"><defs><clipPath id="443b269fca"><path d="M 18 0.621094 L 35 0.621094 L 35 18 L 18 18 Z M 18 0.621094 " clip-rule="nonzero"/></clipPath><clipPath id="7cd363bac0"><path d="M 33 13 L 50.691406 13 L 50.691406 30 L 33 30 Z M 33 13 " clip-rule="nonzero"/></clipPath><clipPath id="6546289af6"><path d="M 0.5625 17 L 34 17 L 34 50.753906 L 0.5625 50.753906 Z M 0.5625 17 " clip-rule="nonzero"/></clipPath></defs><g clip-path="url(#443b269fca)"><path fill="#adff1c" d="M 34.769531 9.949219 L 34.769531 7.878906 L 32.425781 7.101562 C 32.308594 6.71875 32.15625 6.347656 31.96875 5.992188 L 33.070312 3.78125 L 31.660156 2.320312 L 29.398438 3.421875 C 29.042969 3.234375 28.671875 3.082031 28.289062 2.964844 L 27.511719 0.621094 L 25.441406 0.621094 L 24.664062 2.964844 C 24.28125 3.082031 23.910156 3.234375 23.554688 3.421875 L 21.34375 2.320312 L 19.882812 3.78125 L 20.984375 5.992188 C 20.796875 6.347656 20.644531 6.71875 20.527344 7.101562 L 18.183594 7.878906 L 18.183594 9.949219 L 20.527344 10.726562 C 20.644531 11.109375 20.796875 11.480469 20.984375 11.835938 L 19.882812 14.097656 L 21.34375 15.558594 L 23.554688 14.460938 C 23.910156 14.644531 24.28125 14.796875 24.664062 14.917969 L 25.441406 17.207031 L 27.511719 17.207031 L 28.289062 14.863281 C 28.671875 14.746094 29.042969 14.59375 29.398438 14.40625 L 31.660156 15.507812 L 33.070312 14.097656 L 31.96875 11.835938 C 32.15625 11.480469 32.308594 11.109375 32.425781 10.726562 Z M 26.476562 12.023438 C 26.0625 12.023438 25.667969 11.945312 25.285156 11.789062 C 24.90625 11.628906 24.570312 11.40625 24.277344 11.113281 C 23.984375 10.820312 23.761719 10.484375 23.601562 10.105469 C 23.445312 9.722656 23.367188 9.328125 23.367188 8.914062 C 23.367188 8.5 23.445312 8.105469 23.601562 7.722656 C 23.761719 7.34375 23.984375 7.007812 24.277344 6.714844 C 24.570312 6.421875 24.90625 6.199219 25.285156 6.039062 C 25.667969 5.882812 26.0625 5.804688 26.476562 5.804688 C 26.890625 5.804688 27.285156 5.882812 27.667969 6.039062 C 28.046875 6.199219 28.382812 6.421875 28.675781 6.714844 C 28.96875 7.007812 29.191406 7.34375 29.351562 7.722656 C 29.507812 8.105469 29.585938 8.5 29.585938 8.914062 C 29.585938 9.328125 29.507812 9.722656 29.351562 10.105469 C 29.191406 10.484375 28.96875 10.820312 28.675781 11.113281 C 28.382812 11.40625 28.046875 11.628906 27.667969 11.789062 C 27.285156 11.945312 26.890625 12.023438 26.476562 12.023438 Z M 26.476562 12.023438 " fill-opacity="1" fill-rule="nonzero"/></g><g clip-path="url(#7cd363bac0)"><path fill="#adff1c" d="M 50.320312 22.390625 L 50.320312 20.316406 L 47.976562 19.539062 C 47.855469 19.15625 47.703125 18.785156 47.519531 18.429688 L 48.617188 16.222656 L 47.207031 14.761719 L 44.949219 15.859375 C 44.59375 15.675781 44.222656 15.523438 43.839844 15.402344 L 43.0625 13.0625 L 40.988281 13.0625 L 40.210938 15.402344 C 39.828125 15.523438 39.460938 15.675781 39.101562 15.859375 L 36.894531 14.761719 L 35.433594 16.222656 L 36.53125 18.429688 C 36.347656 18.785156 36.195312 19.15625 36.074219 19.539062 L 33.734375 20.316406 L 33.734375 22.390625 L 36.074219 23.167969 C 36.195312 23.550781 36.347656 23.921875 36.53125 24.277344 L 35.433594 26.535156 L 36.894531 28 L 39.101562 26.898438 C 39.460938 27.082031 39.828125 27.234375 40.210938 27.355469 L 40.988281 29.644531 L 43.0625 29.644531 L 43.839844 27.304688 C 44.222656 27.183594 44.59375 27.03125 44.949219 26.847656 L 47.207031 27.945312 L 48.617188 26.535156 L 47.519531 24.277344 C 47.703125 23.921875 47.855469 23.550781 47.976562 23.167969 Z M 42.027344 24.464844 C 41.613281 24.464844 41.214844 24.382812 40.835938 24.226562 C 40.453125 24.070312 40.117188 23.84375 39.828125 23.550781 C 39.535156 23.261719 39.3125 22.925781 39.152344 22.542969 C 38.996094 22.164062 38.917969 21.765625 38.917969 21.355469 C 38.917969 20.941406 38.996094 20.542969 39.152344 20.164062 C 39.3125 19.78125 39.535156 19.445312 39.828125 19.15625 C 40.117188 18.863281 40.453125 18.636719 40.835938 18.480469 C 41.214844 18.324219 41.613281 18.242188 42.027344 18.242188 C 42.4375 18.242188 42.835938 18.324219 43.214844 18.480469 C 43.597656 18.636719 43.933594 18.863281 44.226562 19.15625 C 44.515625 19.445312 44.742188 19.78125 44.898438 20.164062 C 45.058594 20.542969 45.136719 20.941406 45.136719 21.355469 C 45.136719 21.765625 45.058594 22.164062 44.898438 22.542969 C 44.742188 22.925781 44.515625 23.261719 44.226562 23.550781 C 43.933594 23.84375 43.597656 24.070312 43.214844 24.226562 C 42.835938 24.382812 42.4375 24.464844 42.027344 24.464844 Z M 42.027344 24.464844 " fill-opacity="1" fill-rule="nonzero"/></g><g clip-path="url(#6546289af6)"><path fill="#0a2828" d="M 33.019531 30.871094 L 29.121094 29.574219 C 28.953125 29.117188 28.789062 28.703125 28.601562 28.308594 L 30.4375 24.628906 C 30.539062 24.429688 30.570312 24.21875 30.535156 23.996094 C 30.496094 23.773438 30.398438 23.585938 30.238281 23.425781 L 27.511719 20.699219 C 27.355469 20.542969 27.167969 20.445312 26.949219 20.410156 C 26.730469 20.375 26.519531 20.40625 26.320312 20.503906 L 22.628906 22.390625 C 22.238281 22.203125 21.820312 22.039062 21.367188 21.871094 L 20.070312 17.972656 C 20 17.761719 19.878906 17.589844 19.699219 17.460938 C 19.519531 17.328125 19.316406 17.261719 19.097656 17.257812 L 15.199219 17.257812 C 14.976562 17.261719 14.773438 17.328125 14.597656 17.460938 C 14.417969 17.589844 14.292969 17.761719 14.222656 17.972656 L 12.929688 21.871094 C 12.472656 22.039062 12.058594 22.203125 11.664062 22.390625 L 7.984375 20.503906 C 7.78125 20.402344 7.570312 20.371094 7.351562 20.40625 C 7.128906 20.441406 6.9375 20.539062 6.78125 20.699219 L 4.054688 23.425781 C 3.898438 23.582031 3.800781 23.773438 3.765625 23.992188 C 3.726562 24.210938 3.757812 24.417969 3.859375 24.617188 L 5.746094 28.308594 C 5.558594 28.703125 5.390625 29.117188 5.226562 29.574219 L 1.277344 30.871094 C 1.066406 30.9375 0.894531 31.0625 0.761719 31.242188 C 0.628906 31.421875 0.5625 31.621094 0.5625 31.84375 L 0.5625 35.742188 C 0.5625 35.964844 0.628906 36.164062 0.761719 36.34375 C 0.894531 36.523438 1.066406 36.648438 1.277344 36.714844 L 5.175781 38.011719 C 5.339844 38.46875 5.503906 38.882812 5.691406 39.277344 L 3.859375 42.957031 C 3.757812 43.15625 3.722656 43.367188 3.761719 43.589844 C 3.796875 43.8125 3.894531 44 4.054688 44.160156 L 6.78125 46.886719 C 6.9375 47.042969 7.125 47.140625 7.34375 47.175781 C 7.566406 47.210938 7.773438 47.179688 7.972656 47.082031 L 11.652344 45.246094 C 12.046875 45.433594 12.460938 45.601562 12.917969 45.765625 L 14.214844 49.664062 C 14.28125 49.875 14.40625 50.046875 14.585938 50.179688 C 14.765625 50.308594 14.964844 50.375 15.1875 50.378906 L 19.085938 50.378906 C 19.308594 50.375 19.507812 50.308594 19.6875 50.179688 C 19.867188 50.046875 19.992188 49.875 20.058594 49.664062 L 21.355469 45.765625 C 21.8125 45.601562 22.226562 45.433594 22.621094 45.246094 L 26.300781 47.082031 C 26.503906 47.1875 26.714844 47.21875 26.9375 47.183594 C 27.164062 47.148438 27.355469 47.046875 27.511719 46.886719 L 30.238281 44.160156 C 30.398438 44.003906 30.492188 43.8125 30.53125 43.59375 C 30.566406 43.375 30.535156 43.167969 30.4375 42.96875 L 28.601562 39.285156 C 28.789062 38.894531 28.953125 38.476562 29.121094 38.023438 L 33.019531 36.726562 C 33.230469 36.65625 33.402344 36.535156 33.53125 36.355469 C 33.664062 36.175781 33.730469 35.972656 33.734375 35.753906 L 33.734375 31.84375 C 33.730469 31.621094 33.664062 31.421875 33.53125 31.242188 C 33.402344 31.0625 33.230469 30.9375 33.019531 30.871094 Z M 31.660156 35.015625 C 27.761719 36.3125 27.511719 36.238281 27.316406 36.902344 C 26.28125 40.1875 25.6875 38.105469 28.25 43.238281 L 26.558594 44.925781 C 22.878906 43.089844 22.765625 42.851562 22.144531 43.207031 C 19.085938 44.824219 20.214844 42.675781 18.339844 48.386719 L 15.953125 48.386719 C 14.660156 44.492188 14.730469 44.242188 14.066406 44.046875 C 10.78125 43.007812 12.867188 42.417969 7.734375 44.976562 L 6.042969 43.207031 C 7.878906 39.527344 8.117188 39.410156 7.765625 38.789062 C 6.148438 35.730469 8.292969 36.902344 2.632812 34.984375 L 2.632812 32.601562 C 6.53125 31.304688 6.78125 31.378906 6.976562 30.683594 C 8.015625 27.398438 8.605469 29.480469 6.042969 24.347656 L 7.734375 22.660156 C 11.425781 24.503906 11.527344 24.734375 12.152344 24.378906 C 15.261719 22.761719 14.078125 24.910156 15.953125 19.25 L 18.339844 19.25 C 19.636719 23.148438 19.5625 23.394531 20.226562 23.59375 C 23.511719 24.628906 21.429688 25.21875 26.558594 22.660156 L 28.25 24.347656 C 26.414062 28.03125 26.175781 28.144531 26.527344 28.765625 C 28.144531 31.824219 26 30.695312 31.660156 32.570312 Z M 31.660156 35.015625 " fill-opacity="1" fill-rule="nonzero"/></g><path fill="#adff1c" d="M 15.125 36.570312 L 17.199219 30.351562 C 17.242188 30.222656 17.308594 30.105469 17.402344 30 C 17.492188 29.894531 17.597656 29.8125 17.722656 29.753906 C 17.84375 29.691406 17.976562 29.65625 18.113281 29.644531 C 18.25 29.636719 18.386719 29.65625 18.515625 29.699219 C 18.644531 29.742188 18.761719 29.808594 18.867188 29.898438 C 18.972656 29.992188 19.054688 30.097656 19.113281 30.222656 C 19.175781 30.34375 19.210938 30.476562 19.21875 30.613281 C 19.230469 30.75 19.210938 30.882812 19.167969 31.015625 L 17.09375 37.234375 C 17.050781 37.363281 16.984375 37.480469 16.894531 37.585938 C 16.800781 37.6875 16.695312 37.773438 16.570312 37.832031 C 16.449219 37.894531 16.316406 37.929688 16.179688 37.9375 C 16.042969 37.949219 15.910156 37.929688 15.777344 37.886719 C 15.648438 37.84375 15.53125 37.777344 15.425781 37.683594 C 15.324219 37.59375 15.242188 37.488281 15.179688 37.363281 C 15.117188 37.242188 15.082031 37.109375 15.074219 36.972656 C 15.066406 36.835938 15.082031 36.703125 15.125 36.570312 Z M 15.125 36.570312 " fill-opacity="1" fill-rule="nonzero"/><path fill="#adff1c" d="M 21.292969 36.902344 C 21.082031 36.902344 20.890625 36.847656 20.714844 36.730469 C 20.539062 36.613281 20.410156 36.457031 20.332031 36.265625 C 20.25 36.070312 20.230469 35.867188 20.269531 35.664062 C 20.3125 35.457031 20.40625 35.277344 20.558594 35.128906 L 21.90625 33.792969 L 20.558594 32.457031 C 20.460938 32.359375 20.386719 32.246094 20.332031 32.117188 C 20.28125 31.992188 20.253906 31.859375 20.253906 31.71875 C 20.253906 31.582031 20.28125 31.449219 20.332031 31.320312 C 20.386719 31.195312 20.460938 31.082031 20.558594 30.984375 C 20.65625 30.886719 20.769531 30.8125 20.894531 30.757812 C 21.023438 30.707031 21.15625 30.679688 21.292969 30.679688 C 21.433594 30.679688 21.5625 30.707031 21.691406 30.757812 C 21.820312 30.8125 21.933594 30.886719 22.03125 30.984375 L 24.101562 33.058594 C 24.199219 33.152344 24.277344 33.265625 24.328125 33.394531 C 24.382812 33.523438 24.410156 33.65625 24.410156 33.792969 C 24.410156 33.929688 24.382812 34.0625 24.328125 34.191406 C 24.277344 34.320312 24.199219 34.429688 24.101562 34.527344 C 21.84375 36.789062 21.851562 36.902344 21.292969 36.902344 Z M 21.292969 36.902344 " fill-opacity="1" fill-rule="nonzero"/><path fill="#adff1c" d="M 13 36.902344 C 12.441406 36.902344 12.410156 36.746094 10.191406 34.527344 C 10.09375 34.429688 10.019531 34.320312 9.964844 34.191406 C 9.910156 34.0625 9.882812 33.929688 9.882812 33.792969 C 9.882812 33.65625 9.910156 33.523438 9.964844 33.394531 C 10.019531 33.265625 10.09375 33.152344 10.191406 33.058594 L 12.265625 30.984375 C 12.363281 30.886719 12.476562 30.8125 12.601562 30.757812 C 12.730469 30.707031 12.863281 30.679688 13 30.679688 C 13.136719 30.679688 13.269531 30.707031 13.398438 30.757812 C 13.527344 30.8125 13.640625 30.886719 13.738281 30.984375 C 13.835938 31.082031 13.910156 31.195312 13.960938 31.320312 C 14.015625 31.449219 14.042969 31.582031 14.042969 31.71875 C 14.042969 31.859375 14.015625 31.992188 13.960938 32.117188 C 13.910156 32.246094 13.835938 32.359375 13.738281 32.457031 L 12.390625 33.792969 L 13.738281 35.128906 C 13.886719 35.277344 13.980469 35.457031 14.023438 35.664062 C 14.0625 35.867188 14.042969 36.070312 13.964844 36.265625 C 13.882812 36.457031 13.753906 36.613281 13.578125 36.730469 C 13.402344 36.847656 13.210938 36.902344 13 36.902344 Z M 13 36.902344 " fill-opacity="1" fill-rule="nonzero"/></svg>