<svg xmlns="http://www.w3.org/2000/svg" xmlns:xlink="http://www.w3.org/1999/xlink" width="68" zoomAndPan="magnify" viewBox="0 0 50.879997 50.999998" height="68" preserveAspectRatio="xMidYMid meet" version="1.0"><defs><clipPath id="5cc80c144b"><path d="M 16 35 L 50.761719 35 L 50.761719 42 L 16 42 Z M 16 35 " clip-rule="nonzero"/></clipPath><clipPath id="d8656497ab"><path d="M 10 8.011719 L 12 8.011719 L 12 11 L 10 11 Z M 10 8.011719 " clip-rule="nonzero"/></clipPath><clipPath id="918d9a0098"><path d="M 12 8.011719 L 15 8.011719 L 15 11 L 12 11 Z M 12 8.011719 " clip-rule="nonzero"/></clipPath></defs><path fill="#ffc002" d="M 39.148438 33.371094 C 41.488281 32.957031 45.011719 32.9375 46.695312 34.59375 C 43.304688 33.136719 39.007812 34.378906 35.574219 35.417969 C 31.285156 36.722656 27.039062 38.277344 22.496094 38.269531 C 18.945312 38.265625 14.878906 37.367188 12.289062 34.742188 C 21.074219 39.765625 30.195312 34.957031 39.148438 33.371094 Z M 39.148438 33.371094 " fill-opacity="1" fill-rule="nonzero"/><g clip-path="url(#5cc80c144b)"><path fill="#ffc002" d="M 43.261719 35.511719 C 45.574219 34.957031 49.085938 34.71875 50.867188 36.269531 C 47.394531 35.023438 43.179688 36.523438 39.820312 37.773438 C 35.617188 39.332031 31.472656 41.148438 26.9375 41.417969 C 23.390625 41.628906 19.28125 40.980469 16.535156 38.519531 C 25.609375 42.996094 34.417969 37.640625 43.261719 35.511719 Z M 43.261719 35.511719 " fill-opacity="1" fill-rule="nonzero"/></g><path fill="#ffc002" d="M 2.871094 19.550781 C 2.871094 19.550781 4.710938 31.207031 20.40625 35.703125 C 20.40625 35.703125 3.839844 33.558594 2.871094 19.550781 Z M 2.871094 19.550781 " fill-opacity="1" fill-rule="nonzero"/><path fill="#ffc002" d="M 11.011719 29.984375 C 10.660156 28.527344 11.566406 26.652344 11.566406 26.652344 C 11.566406 26.652344 13.226562 27.90625 13.578125 29.363281 C 13.929688 30.816406 12.835938 31.921875 12.835938 31.921875 C 12.835938 31.921875 11.363281 31.4375 11.011719 29.984375 Z M 11.011719 29.984375 " fill-opacity="1" fill-rule="nonzero"/><path fill="#ffc002" d="M 8.28125 27.984375 C 7.976562 26.71875 8.765625 25.082031 8.765625 25.082031 C 8.765625 25.082031 10.214844 26.175781 10.519531 27.441406 C 10.824219 28.707031 9.875 29.671875 9.875 29.671875 C 9.875 29.671875 8.585938 29.25 8.28125 27.984375 Z M 8.28125 27.984375 " fill-opacity="1" fill-rule="nonzero"/><path fill="#ffc002" d="M 7.0625 26.605469 C 7.0625 26.605469 6.011719 25.96875 6.003906 24.785156 C 5.996094 23.601562 7.03125 22.324219 7.03125 22.324219 C 7.03125 22.324219 8.085938 23.585938 8.09375 24.769531 C 8.101562 25.953125 7.0625 26.605469 7.0625 26.605469 Z M 7.0625 26.605469 " fill-opacity="1" fill-rule="nonzero"/><path fill="#ffc002" d="M 4.824219 23.285156 C 4.824219 23.285156 3.980469 22.527344 4.179688 21.453125 C 4.375 20.378906 5.53125 19.398438 5.53125 19.398438 C 5.53125 19.398438 6.269531 20.726562 6.074219 21.800781 C 5.878906 22.871094 4.824219 23.285156 4.824219 23.285156 Z M 4.824219 23.285156 " fill-opacity="1" fill-rule="nonzero"/><path fill="#ffc002" d="M 2.867188 22.332031 C 2.867188 22.332031 1.925781 22.710938 1.136719 22.132812 C 0.347656 21.554688 0.0078125 20.234375 0.0078125 20.234375 C 0.0078125 20.234375 1.371094 20.160156 2.160156 20.738281 C 2.949219 21.316406 2.867188 22.332031 2.867188 22.332031 Z M 2.867188 22.332031 " fill-opacity="1" fill-rule="nonzero"/><path fill="#ffc002" d="M 3.0625 20.597656 C 3.0625 20.597656 2.066406 20.058594 2.007812 18.96875 C 1.945312 17.878906 2.839844 16.652344 2.839844 16.652344 C 2.839844 16.652344 3.867188 17.769531 3.929688 18.859375 C 3.992188 19.949219 3.0625 20.597656 3.0625 20.597656 Z M 3.0625 20.597656 " fill-opacity="1" fill-rule="nonzero"/><path fill="#ffc002" d="M 2.585938 23.914062 C 3.558594 24.289062 3.757812 25.351562 3.757812 25.351562 C 3.757812 25.351562 2.898438 26.007812 1.925781 25.632812 C 0.953125 25.257812 0.238281 23.996094 0.238281 23.996094 C 0.238281 23.996094 1.613281 23.542969 2.585938 23.914062 Z M 2.585938 23.914062 " fill-opacity="1" fill-rule="nonzero"/><path fill="#ffc002" d="M 4.070312 26.933594 C 5.234375 27.144531 5.683594 28.285156 5.683594 28.285156 C 5.683594 28.285156 4.867188 29.199219 3.703125 28.992188 C 2.535156 28.78125 1.46875 27.53125 1.46875 27.53125 C 1.46875 27.53125 2.90625 26.726562 4.070312 26.933594 Z M 4.070312 26.933594 " fill-opacity="1" fill-rule="nonzero"/><path fill="#ffc002" d="M 11.742188 33.414062 C 11.742188 33.414062 10.960938 34.757812 9.464844 34.796875 C 7.96875 34.839844 6.324219 33.558594 6.324219 33.558594 C 6.324219 33.558594 7.898438 32.195312 9.394531 32.15625 C 10.890625 32.117188 11.742188 33.414062 11.742188 33.414062 Z M 11.742188 33.414062 " fill-opacity="1" fill-rule="nonzero"/><path fill="#ffc002" d="M 8.210938 30.933594 C 8.210938 30.933594 7.570312 32.035156 6.339844 32.066406 C 5.109375 32.101562 3.757812 31.050781 3.757812 31.050781 C 3.757812 31.050781 5.050781 29.929688 6.28125 29.894531 C 7.511719 29.863281 8.210938 30.933594 8.210938 30.933594 Z M 8.210938 30.933594 " fill-opacity="1" fill-rule="nonzero"/><path fill="#ffc002" d="M 12.90625 9.449219 C 12.90625 9.449219 8.078125 16.085938 13.585938 26.019531 C 13.585938 26.019531 6.496094 16.816406 12.90625 9.449219 Z M 12.90625 9.449219 " fill-opacity="1" fill-rule="nonzero"/><path fill="#ffc002" d="M 11.78125 18.585938 C 12.320312 17.695312 13.691406 17.21875 13.691406 17.21875 C 13.691406 17.21875 13.890625 18.65625 13.347656 19.542969 C 12.804688 20.429688 11.726562 20.4375 11.726562 20.4375 C 11.726562 20.4375 11.238281 19.472656 11.78125 18.585938 Z M 11.78125 18.585938 " fill-opacity="1" fill-rule="nonzero"/><path fill="#ffc002" d="M 11.421875 16.257812 C 11.894531 15.484375 13.085938 15.070312 13.085938 15.070312 C 13.085938 15.070312 13.257812 16.320312 12.789062 17.09375 C 12.316406 17.867188 11.375 17.871094 11.375 17.871094 C 11.375 17.871094 10.949219 17.03125 11.421875 16.257812 Z M 11.421875 16.257812 " fill-opacity="1" fill-rule="nonzero"/><path fill="#ffc002" d="M 11.5 14.980469 C 11.5 14.980469 11.296875 14.152344 11.875 13.566406 C 12.449219 12.980469 13.589844 12.859375 13.589844 12.859375 C 13.589844 12.859375 13.484375 14 12.910156 14.585938 C 12.332031 15.171875 11.5 14.980469 11.5 14.980469 Z M 11.5 14.980469 " fill-opacity="1" fill-rule="nonzero"/><path fill="#ffc002" d="M 12.03125 12.246094 C 12.03125 12.246094 11.988281 11.460938 12.613281 11.03125 C 13.238281 10.597656 14.289062 10.683594 14.289062 10.683594 C 14.289062 10.683594 14 11.699219 13.375 12.132812 C 12.753906 12.5625 12.03125 12.246094 12.03125 12.246094 Z M 12.03125 12.246094 " fill-opacity="1" fill-rule="nonzero"/><g clip-path="url(#d8656497ab)"><path fill="#ffc002" d="M 11.539062 10.816406 C 11.539062 10.816406 10.886719 10.539062 10.78125 9.867188 C 10.679688 9.195312 11.160156 8.378906 11.160156 8.378906 C 11.160156 8.378906 11.867188 9.011719 11.972656 9.683594 C 12.074219 10.359375 11.539062 10.816406 11.539062 10.816406 Z M 11.539062 10.816406 " fill-opacity="1" fill-rule="nonzero"/></g><g clip-path="url(#918d9a0098)"><path fill="#ffc002" d="M 12.488281 10.058594 C 12.488281 10.058594 12.261719 9.304688 12.769531 8.738281 C 13.273438 8.171875 14.316406 8.011719 14.316406 8.011719 C 14.316406 8.011719 14.273438 9.066406 13.769531 9.632812 C 13.261719 10.195312 12.488281 10.058594 12.488281 10.058594 Z M 12.488281 10.058594 " fill-opacity="1" fill-rule="nonzero"/></g><path fill="#ffc002" d="M 10.617188 11.457031 C 10.914062 12.121094 10.488281 12.742188 10.488281 12.742188 C 10.488281 12.742188 9.742188 12.636719 9.449219 11.976562 C 9.15625 11.316406 9.421875 10.34375 9.421875 10.34375 C 9.421875 10.34375 10.324219 10.792969 10.617188 11.457031 Z M 10.617188 11.457031 " fill-opacity="1" fill-rule="nonzero"/><path fill="#ffc002" d="M 9.867188 13.671875 C 10.335938 14.347656 9.996094 15.132812 9.996094 15.132812 C 9.996094 15.132812 9.144531 15.175781 8.671875 14.503906 C 8.203125 13.828125 8.292969 12.6875 8.292969 12.6875 C 8.292969 12.6875 9.394531 12.996094 9.867188 13.671875 Z M 9.867188 13.671875 " fill-opacity="1" fill-rule="nonzero"/><path fill="#ffc002" d="M 10.449219 20.632812 C 10.449219 20.632812 9.40625 20.90625 8.648438 20.191406 C 7.894531 19.476562 7.714844 18.039062 7.714844 18.039062 C 7.714844 18.039062 9.160156 18.140625 9.914062 18.859375 C 10.671875 19.574219 10.449219 20.632812 10.449219 20.632812 Z M 10.449219 20.632812 " fill-opacity="1" fill-rule="nonzero"/><path fill="#ffc002" d="M 9.9375 17.675781 C 9.9375 17.675781 9.078125 17.902344 8.457031 17.3125 C 7.835938 16.722656 7.6875 15.542969 7.6875 15.542969 C 7.6875 15.542969 8.875 15.628906 9.496094 16.214844 C 10.117188 16.804688 9.9375 17.675781 9.9375 17.675781 Z M 9.9375 17.675781 " fill-opacity="1" fill-rule="nonzero"/><path fill="#ffc002" d="M 23.550781 11.433594 C 23.550781 11.433594 17.863281 12.328125 15.667969 19.984375 C 15.667969 19.984375 16.71875 11.90625 23.550781 11.433594 Z M 23.550781 11.433594 " fill-opacity="1" fill-rule="nonzero"/><path fill="#ffc002" d="M 18.460938 15.402344 C 19.171875 15.230469 20.085938 15.671875 20.085938 15.671875 C 20.085938 15.671875 19.472656 16.484375 18.761719 16.65625 C 18.054688 16.828125 17.515625 16.292969 17.515625 16.292969 C 17.515625 16.292969 17.75 15.574219 18.460938 15.402344 Z M 18.460938 15.402344 " fill-opacity="1" fill-rule="nonzero"/><path fill="#ffc002" d="M 19.433594 14.070312 C 20.054688 13.921875 20.851562 14.308594 20.851562 14.308594 C 20.851562 14.308594 20.316406 15.015625 19.699219 15.164062 C 19.082031 15.3125 18.613281 14.847656 18.613281 14.847656 C 18.613281 14.847656 18.816406 14.222656 19.433594 14.070312 Z M 19.433594 14.070312 " fill-opacity="1" fill-rule="nonzero"/><path fill="#ffc002" d="M 20.109375 13.476562 C 20.109375 13.476562 20.417969 12.964844 20.996094 12.960938 C 21.574219 12.957031 22.199219 13.460938 22.199219 13.460938 C 22.199219 13.460938 21.582031 13.976562 21.003906 13.980469 C 20.425781 13.984375 20.109375 13.476562 20.109375 13.476562 Z M 20.109375 13.476562 " fill-opacity="1" fill-rule="nonzero"/><path fill="#ffc002" d="M 21.726562 12.382812 C 21.726562 12.382812 22.097656 11.972656 22.621094 12.070312 C 23.144531 12.164062 23.621094 12.730469 23.621094 12.730469 C 23.621094 12.730469 22.972656 13.089844 22.453125 12.992188 C 21.929688 12.898438 21.726562 12.382812 21.726562 12.382812 Z M 21.726562 12.382812 " fill-opacity="1" fill-rule="nonzero"/><path fill="#ffc002" d="M 22.191406 11.429688 C 22.191406 11.429688 22.007812 10.972656 22.289062 10.585938 C 22.570312 10.203125 23.214844 10.035156 23.214844 10.035156 C 23.214844 10.035156 23.25 10.699219 22.96875 11.085938 C 22.6875 11.46875 22.191406 11.429688 22.191406 11.429688 Z M 22.191406 11.429688 " fill-opacity="1" fill-rule="nonzero"/><path fill="#ffc002" d="M 23.039062 11.527344 C 23.039062 11.527344 23.300781 11.039062 23.832031 11.011719 C 24.363281 10.980469 24.960938 11.417969 24.960938 11.417969 C 24.960938 11.417969 24.417969 11.917969 23.886719 11.949219 C 23.355469 11.980469 23.039062 11.527344 23.039062 11.527344 Z M 23.039062 11.527344 " fill-opacity="1" fill-rule="nonzero"/><path fill="#ffc002" d="M 21.417969 11.292969 C 21.238281 11.769531 20.71875 11.863281 20.71875 11.863281 C 20.71875 11.863281 20.398438 11.445312 20.582031 10.972656 C 20.765625 10.496094 21.378906 10.148438 21.378906 10.148438 C 21.378906 10.148438 21.601562 10.816406 21.417969 11.292969 Z M 21.417969 11.292969 " fill-opacity="1" fill-rule="nonzero"/><path fill="#ffc002" d="M 19.945312 12.015625 C 19.84375 12.585938 19.289062 12.804688 19.289062 12.804688 C 19.289062 12.804688 18.84375 12.40625 18.945312 11.839844 C 19.046875 11.269531 19.65625 10.75 19.65625 10.75 C 19.65625 10.75 20.046875 11.449219 19.945312 12.015625 Z M 19.945312 12.015625 " fill-opacity="1" fill-rule="nonzero"/><path fill="#ffc002" d="M 16.785156 15.757812 C 16.785156 15.757812 16.128906 15.378906 16.113281 14.648438 C 16.09375 13.917969 16.714844 13.117188 16.714844 13.117188 C 16.714844 13.117188 17.382812 13.882812 17.402344 14.613281 C 17.421875 15.34375 16.785156 15.757812 16.785156 15.757812 Z M 16.785156 15.757812 " fill-opacity="1" fill-rule="nonzero"/><path fill="#ffc002" d="M 17.996094 14.039062 C 17.996094 14.039062 17.460938 13.722656 17.441406 13.125 C 17.425781 12.523438 17.941406 11.867188 17.941406 11.867188 C 17.941406 11.867188 18.488281 12.496094 18.503906 13.097656 C 18.519531 13.695312 17.996094 14.039062 17.996094 14.039062 Z M 17.996094 14.039062 " fill-opacity="1" fill-rule="nonzero"/></svg>