<svg xmlns="http://www.w3.org/2000/svg" xmlns:xlink="http://www.w3.org/1999/xlink" width="1080" zoomAndPan="magnify" viewBox="0 0 810 809.999993" height="1080" preserveAspectRatio="xMidYMid meet" version="1.0"><defs><clipPath id="a94ad86b24"><path d="M 126 234 L 685 234 L 685 705.890625 L 126 705.890625 Z M 126 234 " clip-rule="nonzero"/></clipPath><clipPath id="c195e6170c"><path d="M 434 104.390625 L 455 104.390625 L 455 175 L 434 175 Z M 434 104.390625 " clip-rule="nonzero"/></clipPath></defs><g clip-path="url(#a94ad86b24)"><path fill="#adff1c" d="M 680.839844 551.417969 L 601.898438 484.761719 C 604.460938 479.992188 606.078125 474.714844 606.542969 469.148438 C 607.445312 458.425781 604.128906 448 597.214844 439.835938 C 592.152344 433.816406 585.570312 429.507812 578.179688 427.289062 C 589.148438 412.628906 589.023438 391.789062 576.746094 377.203125 C 571.414062 370.871094 564.390625 366.441406 556.519531 364.335938 C 565.292969 349.964844 564.402344 330.96875 552.949219 317.363281 C 546.609375 309.859375 537.878906 305.019531 528.183594 303.585938 C 532.625 290.628906 530.375 275.71875 520.929688 264.515625 C 514.035156 256.324219 504.308594 251.320312 493.574219 250.40625 C 482.78125 249.46875 472.40625 252.804688 464.214844 259.707031 L 462.71875 260.96875 L 417.472656 239.859375 C 393.792969 227.5625 373.0625 237.230469 363.035156 252.230469 C 359.699219 257.214844 357.652344 262.597656 356.585938 268.027344 L 346.726562 259.699219 C 329.746094 245.40625 304.3125 247.585938 290.007812 264.515625 C 280.5625 275.71875 278.3125 290.628906 282.765625 303.585938 C 273.066406 305.019531 264.359375 309.851562 258 317.375 C 251.09375 325.570312 247.789062 335.984375 248.691406 346.707031 C 249.234375 353.070312 251.203125 359.0625 254.421875 364.335938 C 246.789062 366.390625 239.671875 370.707031 234.191406 377.195312 C 221.90625 391.777344 221.789062 412.617188 232.769531 427.277344 C 225.582031 429.460938 218.921875 433.648438 213.734375 439.808594 C 202.804688 452.742188 201.542969 470.625 209.089844 484.753906 L 130.105469 551.410156 C 126.003906 554.859375 125.492188 560.980469 128.941406 565.070312 C 130.863281 567.339844 133.597656 568.515625 136.371094 568.515625 C 138.582031 568.515625 140.792969 567.769531 142.617188 566.234375 L 221.867188 499.355469 L 253.65625 526.160156 C 260.957031 532.316406 270.023438 535.613281 279.496094 535.613281 C 280.652344 535.613281 281.816406 535.554688 282.976562 535.457031 C 293.695312 534.546875 303.410156 529.542969 310.285156 521.367188 C 317.207031 513.195312 320.523438 502.789062 319.621094 492.054688 C 319.148438 486.371094 317.460938 481.027344 314.832031 476.179688 C 322.84375 474.242188 330.355469 469.925781 336.058594 463.167969 C 343.914062 453.847656 346.617188 442 344.804688 430.820312 C 344.816406 430.820312 344.824219 430.820312 344.835938 430.820312 C 356.140625 430.820312 367.28125 426.125 374.914062 417.117188 C 382.042969 409.949219 385.726562 400.195312 385.269531 389.664062 C 385.25 389.316406 385.136719 388.984375 385.117188 388.648438 C 386.707031 388.839844 388.277344 389.101562 389.894531 389.101562 C 391.050781 389.101562 392.222656 389.054688 393.386719 388.949219 C 404.121094 388.035156 413.828125 383.023438 420.152344 375.460938 C 427.316406 368.332031 431.019531 358.605469 430.585938 348.066406 C 430.1875 338.484375 426.308594 329.476562 420.003906 322.398438 L 476.703125 274.523438 C 480.941406 270.964844 486.3125 269.210938 491.917969 269.734375 C 497.492188 270.199219 502.527344 272.789062 506.085938 277.015625 C 513.484375 285.792969 512.359375 298.988281 503.582031 306.398438 L 496.25 312.605469 C 496.242188 312.613281 496.242188 312.613281 496.242188 312.613281 C 492.160156 316.066406 491.644531 322.183594 495.117188 326.277344 C 498.558594 330.359375 504.679688 330.863281 508.769531 327.410156 L 508.820312 327.363281 C 513.027344 323.84375 518.429688 322.175781 523.917969 322.601562 C 529.503906 323.066406 534.554688 325.644531 538.113281 329.875 C 545.523438 338.667969 544.398438 351.847656 535.613281 359.253906 L 520.058594 372.414062 C 520.058594 372.414062 520.046875 372.425781 520.039062 372.425781 C 515.957031 375.886719 515.441406 382.003906 518.902344 386.085938 C 522.355469 390.179688 528.472656 390.691406 532.566406 387.230469 L 532.578125 387.230469 C 536.804688 383.644531 542.339844 381.984375 547.75 382.410156 C 553.316406 382.886719 558.339844 385.464844 561.898438 389.695312 C 569.296875 398.480469 568.171875 411.667969 559.40625 419.074219 L 540.539062 434.996094 L 540.527344 435.007812 C 536.4375 438.460938 535.910156 444.578125 539.363281 448.671875 C 542.816406 452.761719 548.925781 453.296875 553.027344 449.835938 L 553.054688 449.816406 C 557.285156 446.257812 562.617188 444.597656 568.222656 445.023438 C 573.789062 445.5 578.8125 448.078125 582.378906 452.328125 C 585.957031 456.5625 587.664062 461.957031 587.199219 467.511719 C 586.722656 473.078125 584.144531 478.121094 579.917969 481.6875 L 491.78125 556.082031 C 455.816406 586.445312 426.152344 583.234375 381.597656 574.371094 C 378.6875 573.761719 375.710938 574.566406 373.441406 576.476562 L 240.738281 688.492188 C 236.648438 691.9375 236.132812 698.054688 239.59375 702.15625 C 241.503906 704.425781 244.238281 705.597656 247.003906 705.597656 C 249.214844 705.597656 251.425781 704.851562 253.257812 703.3125 L 382.402344 594.289062 C 400.804688 597.835938 417.648438 600.308594 433.921875 599.710938 L 557.769531 703.339844 C 559.601562 704.863281 561.800781 705.597656 563.992188 705.597656 C 566.765625 705.597656 569.519531 704.417969 571.441406 702.128906 C 574.875 698.015625 574.339844 691.90625 570.230469 688.472656 L 459.53125 595.839844 C 474.21875 591.679688 488.882812 583.921875 504.289062 570.917969 L 589.117188 499.335938 L 668.332031 566.226562 C 670.15625 567.769531 672.375 568.515625 674.585938 568.515625 C 677.351562 568.515625 680.085938 567.351562 682.003906 565.082031 C 685.449219 560.988281 684.933594 554.871094 680.839844 551.417969 Z M 380.179688 287.925781 C 372.839844 281.730469 374.175781 270.460938 379.171875 263.003906 C 381.632812 259.320312 391.039062 248.003906 408.921875 257.246094 L 446.410156 274.738281 L 405.480469 309.296875 L 380.265625 288.023438 L 380.199219 287.964844 C 380.191406 287.953125 380.199219 287.933594 380.179688 287.925781 Z M 295.488281 508.839844 C 291.929688 513.078125 286.90625 515.65625 281.347656 516.121094 C 275.734375 516.625 270.382812 514.882812 266.164062 511.320312 L 231.03125 481.707031 C 222.257812 474.261719 221.140625 461.082031 228.558594 452.316406 C 235.910156 443.589844 248.933594 442.433594 257.726562 449.707031 L 293.042969 479.488281 C 297.273438 483.046875 299.851562 488.078125 300.316406 493.65625 C 300.78125 499.230469 299.066406 504.613281 295.488281 508.839844 Z M 321.25 450.648438 C 313.84375 459.425781 300.675781 460.550781 291.890625 453.160156 L 270.46875 435.09375 C 270.441406 435.074219 270.429688 435.035156 270.402344 435.007812 L 270.390625 434.996094 L 251.53125 419.085938 C 242.753906 411.65625 241.628906 398.480469 249.019531 389.703125 C 252.597656 385.464844 257.640625 382.886719 263.207031 382.410156 C 268.78125 381.957031 274.171875 383.652344 278.402344 387.230469 L 278.410156 387.242188 C 278.429688 387.261719 278.46875 387.261719 278.488281 387.28125 L 318.742188 421.285156 C 327.527344 428.695312 328.640625 441.882812 321.25 450.648438 Z M 360.660156 403.988281 C 353.230469 412.761719 340.0625 413.886719 331.269531 406.46875 L 290.792969 372.289062 C 290.785156 372.277344 290.765625 372.277344 290.753906 372.269531 L 275.308594 359.234375 C 271.082031 355.675781 268.5 350.644531 268.027344 345.070312 C 267.550781 339.503906 269.265625 334.09375 272.824219 329.875 C 276.394531 325.644531 281.425781 323.066406 286.992188 322.601562 C 292.460938 322.085938 297.902344 323.8125 302.121094 327.332031 L 302.207031 327.410156 L 358.148438 374.617188 C 362.765625 378.511719 365.664062 384.449219 365.925781 390.480469 C 366.128906 395.542969 364.460938 400.136719 360.660156 403.988281 Z M 405.925781 362.328125 C 402.367188 366.558594 397.34375 369.136719 391.777344 369.613281 C 386.183594 370.125 380.820312 368.378906 376.613281 364.832031 C 376.136719 364.433594 375.710938 364.425781 375.3125 364.648438 C 373.859375 362.949219 372.375 361.253906 370.65625 359.796875 L 314.707031 312.585938 C 314.667969 312.546875 314.628906 312.527344 314.589844 312.488281 L 307.347656 306.386719 C 298.570312 298.96875 297.445312 285.78125 304.835938 277.015625 C 312.253906 268.25 325.441406 267.117188 334.214844 274.503906 L 347.472656 285.703125 C 347.480469 285.703125 347.480469 285.714844 347.492188 285.722656 L 368.554688 303.507812 L 375.070312 309.007812 L 375.078125 309.007812 L 403.472656 332.988281 C 408.085938 336.875 410.976562 342.808594 411.238281 348.859375 C 411.441406 353.894531 409.753906 358.449219 405.925781 362.328125 Z M 405.925781 362.328125 " fill-opacity="1" fill-rule="nonzero"/></g><g clip-path="url(#c195e6170c)"><path fill="#adff1c" d="M 444.304688 174.792969 C 449.667969 174.792969 454.003906 170.457031 454.003906 165.09375 L 454.003906 114.089844 C 454.003906 108.726562 449.667969 104.390625 444.304688 104.390625 C 438.941406 104.390625 434.609375 108.726562 434.609375 114.089844 L 434.609375 165.09375 C 434.609375 170.457031 438.941406 174.792969 444.304688 174.792969 Z M 444.304688 174.792969 " fill-opacity="1" fill-rule="nonzero"/></g><path fill="#adff1c" d="M 572.78125 202.671875 C 575.765625 202.671875 578.703125 201.292969 580.613281 198.714844 L 610.78125 157.597656 C 613.941406 153.285156 613.011719 147.214844 608.695312 144.042969 C 604.351562 140.863281 598.300781 141.824219 595.140625 146.128906 L 564.972656 187.242188 C 561.8125 191.558594 562.742188 197.628906 567.058594 200.796875 C 568.785156 202.058594 570.792969 202.671875 572.78125 202.671875 Z M 572.78125 202.671875 " fill-opacity="1" fill-rule="nonzero"/><path fill="#adff1c" d="M 308.007812 198.714844 C 309.898438 201.304688 312.84375 202.671875 315.832031 202.671875 C 317.820312 202.671875 319.828125 202.058594 321.5625 200.789062 C 325.878906 197.628906 326.808594 191.558594 323.636719 187.242188 L 293.449219 146.128906 C 290.289062 141.820312 284.230469 140.882812 279.90625 144.050781 C 275.589844 147.214844 274.660156 153.285156 277.828125 157.597656 Z M 308.007812 198.714844 " fill-opacity="1" fill-rule="nonzero"/></svg>