<svg xmlns="http://www.w3.org/2000/svg" xmlns:xlink="http://www.w3.org/1999/xlink" width="1080" zoomAndPan="magnify" viewBox="0 0 810 809.999993" height="1080" preserveAspectRatio="xMidYMid meet" version="1.0"><defs><clipPath id="9ffc6221a8"><path d="M 127.804688 377 L 146 377 L 146 429 L 127.804688 429 Z M 127.804688 377 " clip-rule="nonzero"/></clipPath></defs><path fill="#adff1c" d="M 416.945312 328.808594 C 417.628906 324.890625 419.210938 318.183594 422.414062 313.488281 C 419.835938 312.414062 417.316406 310.648438 415.863281 307.773438 C 415.316406 306.703125 414.964844 305.558594 414.804688 304.34375 C 414.78125 306.164062 414.855469 308.277344 415.082031 310.730469 C 415.464844 314.882812 413.085938 324.691406 409.691406 330.214844 Z M 416.945312 328.808594 " fill-opacity="1" fill-rule="nonzero"/><path fill="#adff1c" d="M 405.695312 625.707031 C 526.890625 625.707031 625.492188 526.914062 625.492188 405.488281 C 625.492188 382.917969 621.976562 360.441406 615.035156 338.699219 L 614.210938 336.140625 C 613.679688 334.550781 613.152344 332.960938 612.585938 331.390625 C 581.871094 243.394531 498.207031 184.28125 404.394531 184.28125 C 282.902344 184.28125 184.066406 282.378906 184.066406 402.960938 C 184.066406 442.601562 194.878906 481.441406 215.332031 515.273438 C 254.621094 583.414062 327.550781 625.707031 405.695312 625.707031 Z M 376.734375 303.0625 C 377.925781 300.335938 381.03125 295.894531 388.785156 295.320312 C 391.261719 286.421875 400.863281 259.03125 424.636719 260.347656 L 425.710938 260.410156 L 426.570312 261.070312 C 426.734375 261.195312 443.34375 273.824219 463.996094 273.824219 C 473.390625 273.824219 482.261719 271.210938 490.371094 266.058594 C 496.023438 262.46875 503.289062 254.285156 510.320312 246.371094 C 513.46875 242.828125 516.445312 239.488281 519.328125 236.476562 L 521.402344 234.304688 L 523.859375 236.042969 C 533.351562 242.769531 542.230469 250.203125 550.246094 258.160156 C 589.214844 296.835938 610.667969 348.257812 610.667969 402.960938 C 610.648438 411.730469 610.019531 420.820312 608.804688 429.988281 L 608.667969 431.03125 L 607.976562 431.824219 C 606.296875 433.742188 604.71875 435.425781 603.695312 436.488281 C 604.71875 446.160156 605.03125 460.722656 598.109375 463.0625 L 597.640625 463.296875 L 596.714844 463.308594 C 593.296875 463.308594 592.105469 460.050781 589.492188 452.921875 C 588.136719 449.203125 583.996094 437.894531 581.5 437.394531 C 579.050781 437.488281 572.359375 446.375 567.328125 456.21875 C 567.054688 460.050781 565.644531 471.742188 558.550781 474.117188 L 555.222656 475.234375 L 545.25 444.632812 L 537.171875 433.820312 C 535.699219 434.011719 533.597656 434.199219 531.203125 434.199219 C 525.390625 434.199219 520.472656 433.132812 516.5625 431.023438 C 514.382812 431.0625 509.667969 430.691406 504.683594 427.265625 C 506.28125 429.683594 509.929688 430.714844 512.761719 431.15625 L 513.664062 431.425781 C 519.628906 434.105469 526.734375 438.304688 526.699219 443.046875 C 526.613281 454.101562 506.316406 471.882812 493.785156 471.882812 C 491.84375 471.882812 490.109375 471.472656 488.609375 470.652344 C 485.332031 468.824219 483.1875 463.75 479.355469 454.175781 C 475.917969 445.574219 470.75 432.660156 465.777344 430.945312 C 465.273438 431.125 463.464844 432.050781 459.027344 436.535156 C 458.523438 437.046875 458.160156 437.390625 458.019531 437.503906 C 457.445312 437.964844 455.714844 439.347656 456.277344 443.695312 C 457.96875 456.777344 476.175781 477.25 483.734375 480.582031 C 485.964844 480.566406 489.84375 479.023438 492.667969 477.90625 C 495.957031 476.605469 497.890625 475.859375 499.496094 475.859375 C 500.941406 475.859375 502.203125 476.484375 502.957031 477.574219 C 508.289062 485.328125 491.933594 503.832031 489.539062 506.046875 C 487.757812 507.683594 485.234375 509.542969 482.558594 511.519531 C 477.773438 515.042969 471.21875 519.867188 469.695312 523.335938 C 468.933594 525.070312 469.613281 529.5 470.15625 533.066406 C 470.96875 538.375 471.738281 543.394531 469.988281 547.050781 C 468.945312 549.160156 466.730469 550.074219 464.777344 550.886719 C 464.257812 551.09375 463.464844 551.417969 463.230469 551.582031 C 460.359375 554.039062 456.945312 558.804688 453.335938 563.851562 C 444.707031 575.917969 433.964844 590.921875 418.902344 590.921875 C 415.257812 590.921875 411.535156 590.019531 407.847656 588.238281 L 407.222656 587.933594 L 406.761719 587.417969 C 405.945312 586.496094 386.8125 564.628906 394.003906 542.628906 C 396.960938 533.582031 391.351562 511.242188 384.773438 505.859375 C 382.445312 503.949219 378.070312 503.027344 371.386719 503.027344 C 366.796875 503.027344 361.699219 503.453125 356.773438 503.882812 C 348.207031 504.609375 340.21875 505.085938 335.410156 503.980469 C 325.597656 501.726562 316.984375 491.84375 313.453125 478.8125 C 310.847656 469.207031 307.628906 444.199219 333.796875 419.566406 L 334.253906 419.132812 L 334.832031 418.890625 C 336.265625 418.289062 370.011719 404.199219 384.792969 404.199219 C 388.839844 404.199219 391.566406 405.21875 393.117188 407.304688 C 396.679688 412.0625 394.722656 415.652344 393.378906 417.464844 C 394.148438 417.941406 395.367188 418.179688 397.75 418.574219 C 401.675781 419.210938 407.34375 420.132812 414.8125 424.542969 C 414.863281 424.132812 414.910156 423.714844 414.941406 423.3125 L 415.089844 421.628906 L 416.496094 420.707031 C 419.699219 418.601562 422.183594 417.542969 423.886719 417.542969 C 426.085938 417.5625 429.164062 419.34375 431.453125 420.902344 C 432.871094 421.550781 440.621094 424.9375 447.242188 424.9375 C 449.34375 424.9375 451.066406 424.585938 452.371094 423.902344 C 453.898438 422.675781 458.695312 413.121094 460.773438 404.894531 C 458.929688 405.195312 456.75 405.421875 454.429688 405.421875 C 445.226562 405.421875 438.550781 401.878906 434.910156 395.25 L 429.75 407.910156 L 426.425781 400.445312 C 426.3125 400.195312 414.8125 374.738281 399.589844 373.390625 C 398.878906 373.320312 398.210938 373.292969 397.578125 373.292969 C 386.972656 373.292969 381.148438 381.238281 375.519531 388.925781 C 371.6875 394.152344 368.066406 399.089844 363.050781 400.992188 C 350.640625 405.675781 341.265625 403.539062 337.429688 395.765625 C 334.539062 389.890625 335.484375 381.664062 339.679688 376.203125 C 342.167969 372.960938 347.148438 372.867188 351.972656 372.773438 C 354.226562 372.730469 358.015625 372.660156 358.875 372.003906 C 359.652344 370.324219 359.84375 368.582031 359.277344 366.929688 C 358.203125 363.765625 354.523438 361.402344 353.195312 360.757812 L 347.90625 358.195312 L 352.679688 354.78125 C 355.945312 352.453125 384.992188 332.03125 398.441406 332.03125 C 398.496094 332.03125 398.539062 332.03125 398.585938 332.03125 C 394.5625 327.382812 393.628906 323.863281 393 321.492188 C 392.964844 321.367188 392.929688 321.226562 392.894531 321.085938 C 391.714844 322.003906 390 323.066406 387.671875 323.066406 C 384.742188 323.066406 381.867188 321.441406 378.632812 317.941406 C 375.890625 314.992188 374.382812 308.457031 376.734375 303.0625 Z M 272.617188 245.574219 C 297.835938 224.726562 328.054688 210.015625 360.007812 203.03125 L 361.824219 202.632812 L 363.164062 203.914062 C 364.507812 205.203125 365.664062 206.496094 366.699219 207.871094 C 368.957031 210.886719 366.128906 213.449219 363.640625 215.707031 C 358.917969 219.988281 351.015625 227.152344 353.125 237.75 L 353.214844 238.171875 L 353.191406 238.597656 C 352.984375 242.792969 350.816406 250.285156 343.988281 251.75 C 343.335938 251.84375 342.671875 251.960938 342.054688 252.09375 C 345.046875 254.535156 349.992188 259.382812 343.136719 269.679688 C 339.507812 275.136719 333.964844 277.523438 329.917969 279.261719 C 328.464844 279.882812 327.097656 280.472656 326.152344 281.058594 C 325.488281 281.46875 324.09375 283.042969 323.175781 284.082031 C 322.082031 285.320312 321.050781 286.480469 320.058594 287.285156 C 318.460938 288.554688 316.566406 289.730469 314.558594 290.96875 C 307.785156 295.15625 300.109375 299.894531 299.8125 310.535156 L 299.707031 311.308594 C 298.980469 314.125 296.480469 318.902344 291.699219 318.902344 C 289.066406 318.902344 286.5 317.457031 283.84375 314.488281 L 283.292969 313.660156 C 282.363281 311.699219 274.335938 294.246094 278.753906 284.964844 C 280.109375 282.121094 282.488281 280.21875 285.621094 279.460938 L 285.699219 279.4375 C 286.289062 277.574219 287.265625 271.472656 285.164062 253.054688 C 284.976562 252.140625 284.371094 251.582031 283.398438 251.582031 C 282.695312 251.582031 281.097656 251.824219 278.34375 253.488281 L 276.566406 254.5625 L 274.773438 253.507812 C 273.445312 252.726562 272.421875 251.457031 271.636719 249.632812 L 270.609375 247.230469 Z M 213.472656 480.703125 L 213.023438 479.59375 C 210.472656 473.300781 208.230469 466.851562 206.355469 460.425781 L 201.773438 444.6875 L 212.359375 457.203125 C 214.652344 459.910156 217.203125 462.539062 220.15625 465.226562 C 220.566406 465.597656 220.933594 465.964844 221.285156 466.316406 C 222.664062 467.683594 223.078125 468.097656 225.65625 468.097656 C 227.625 468.097656 230.46875 467.734375 234.347656 466.96875 C 235.597656 466.722656 236.859375 466.605469 238.121094 466.605469 C 252.996094 466.605469 273.671875 481.8125 284.304688 495.890625 C 286.574219 498.902344 294.199219 500.761719 300.921875 502.402344 C 310.160156 504.660156 318.886719 506.789062 322.378906 512.582031 C 327.238281 520.65625 321.410156 544.246094 320.191406 548.890625 L 319.785156 550.4375 L 318.351562 551.140625 C 317.890625 551.371094 306.570312 557.265625 302.558594 575.820312 L 301.523438 580.582031 L 297.351562 578.058594 C 285.414062 570.847656 274.066406 562.265625 263.617188 552.558594 L 262.953125 551.714844 C 260.296875 546.988281 258.015625 542.597656 255.980469 538.28125 C 253.949219 533.953125 247.984375 528.441406 242.222656 523.101562 C 235.570312 516.953125 229.285156 511.140625 226.703125 505.46875 C 225.101562 501.972656 225.996094 496.789062 226.929688 491.308594 C 227.433594 488.375 228.355469 483.023438 227.765625 481.433594 C 226.914062 481.246094 226.3125 481.441406 225.070312 481.980469 C 223.871094 482.5 222.382812 483.148438 220.402344 483.148438 C 218.589844 483.148438 216.664062 482.546875 214.503906 481.304688 Z M 213.472656 480.703125 " fill-opacity="1" fill-rule="nonzero"/><path fill="#adff1c" d="M 362.800781 139.808594 C 363.347656 144.1875 367.074219 147.394531 371.378906 147.394531 C 371.738281 147.394531 372.097656 147.375 372.460938 147.328125 C 383.132812 146 394.035156 145.328125 404.871094 145.328125 C 407.800781 145.328125 410.773438 145.378906 413.699219 145.476562 C 413.796875 145.480469 413.894531 145.480469 413.988281 145.480469 C 418.640625 145.480469 422.480469 141.789062 422.640625 137.113281 C 422.796875 132.34375 419.066406 128.351562 414.300781 128.175781 C 411.707031 128.078125 409.101562 128.023438 406.503906 128.023438 C 394.402344 128.023438 382.332031 128.65625 370.320312 130.148438 C 365.578125 130.738281 362.210938 135.0625 362.800781 139.808594 Z M 362.800781 139.808594 " fill-opacity="1" fill-rule="nonzero"/><path fill="#adff1c" d="M 247.847656 196.019531 C 249.605469 196.019531 251.378906 195.484375 252.910156 194.378906 C 261.664062 188.054688 270.890625 182.226562 280.34375 177.054688 C 284.539062 174.761719 286.078125 169.503906 283.78125 165.308594 C 282.210938 162.433594 279.242188 160.808594 276.183594 160.808594 C 274.777344 160.808594 273.347656 161.152344 272.027344 161.871094 C 261.902344 167.417969 252.117188 173.59375 242.757812 180.355469 C 238.890625 183.15625 238.023438 188.5625 240.820312 192.433594 C 242.515625 194.777344 245.164062 196.019531 247.847656 196.019531 Z M 247.847656 196.019531 " fill-opacity="1" fill-rule="nonzero"/><path fill="#adff1c" d="M 306.546875 163.90625 C 307.605469 163.90625 308.679688 163.710938 309.71875 163.300781 C 319.75 159.351562 330.132812 156 340.582031 153.335938 C 345.214844 152.15625 348.015625 147.445312 346.839844 142.8125 C 345.441406 137.335938 340.605469 136.042969 335.703125 136.929688 C 329.09375 138.121094 322.574219 140.308594 316.242188 142.488281 C 311.921875 143.976562 307.59375 145.511719 303.34375 147.199219 C 298.914062 148.964844 296.738281 153.980469 298.488281 158.421875 C 299.828125 161.828125 303.09375 163.90625 306.546875 163.90625 Z M 306.546875 163.90625 " fill-opacity="1" fill-rule="nonzero"/><path fill="#adff1c" d="M 446.007812 148.566406 C 456.664062 150.257812 467.3125 152.644531 477.65625 155.65625 C 478.464844 155.894531 479.277344 156.007812 480.078125 156.007812 C 483.832031 156.007812 487.289062 153.546875 488.386719 149.765625 C 489.730469 145.175781 487.089844 140.371094 482.496094 139.035156 C 471.421875 135.816406 460.125 133.246094 448.726562 131.464844 C 448.265625 131.394531 447.804688 131.359375 447.355469 131.359375 C 443.171875 131.359375 439.496094 134.394531 438.8125 138.65625 C 438.066406 143.375 441.28125 147.8125 446.007812 148.566406 Z M 446.007812 148.566406 " fill-opacity="1" fill-rule="nonzero"/><path fill="#adff1c" d="M 654.058594 331.46875 C 655.167969 335.234375 658.617188 337.679688 662.359375 337.679688 C 663.167969 337.679688 663.992188 337.5625 664.808594 337.324219 C 669.394531 335.976562 672.015625 331.171875 670.671875 326.589844 C 667.382812 315.425781 663.410156 304.566406 658.804688 294.042969 C 657.375 290.804688 654.203125 288.878906 650.875 288.878906 C 649.71875 288.878906 648.539062 289.109375 647.410156 289.605469 C 643.03125 291.523438 641.03125 296.625 642.949219 301.003906 C 647.277344 310.882812 651.011719 321.128906 654.058594 331.46875 Z M 654.058594 331.46875 " fill-opacity="1" fill-rule="nonzero"/><path fill="#adff1c" d="M 669.808594 353.039062 C 669.347656 353.039062 668.878906 353.078125 668.410156 353.15625 C 663.691406 353.921875 660.488281 358.367188 661.25 363.082031 C 662.972656 373.699219 664.046875 384.566406 664.4375 395.375 C 664.613281 400.046875 668.453125 403.71875 673.089844 403.71875 C 673.195312 403.71875 673.300781 403.714844 673.40625 403.710938 C 678.179688 403.535156 681.910156 399.535156 681.746094 394.761719 C 681.324219 383.226562 680.191406 371.707031 678.34375 360.308594 C 677.652344 356.0625 673.980469 353.039062 669.808594 353.039062 Z M 669.808594 353.039062 " fill-opacity="1" fill-rule="nonzero"/><path fill="#adff1c" d="M 635.546875 276.390625 C 637.058594 276.390625 638.585938 275.996094 639.980469 275.167969 C 644.082031 272.714844 645.425781 267.402344 642.976562 263.296875 C 639.078125 256.761719 634.921875 250.378906 630.5 244.183594 C 627.183594 239.539062 621.683594 231.414062 616.589844 231.414062 C 614.730469 231.414062 612.851562 232.011719 611.273438 233.246094 C 607.503906 236.1875 606.828125 241.628906 609.773438 245.394531 C 616.414062 253.90625 622.582031 262.910156 628.105469 272.167969 C 629.726562 274.882812 632.601562 276.390625 635.546875 276.390625 Z M 635.546875 276.390625 " fill-opacity="1" fill-rule="nonzero"/><path fill="#adff1c" d="M 588.253906 221.101562 C 589.941406 222.789062 592.148438 223.628906 594.367188 223.628906 C 596.585938 223.628906 598.804688 222.777344 600.496094 221.085938 C 603.875 217.699219 603.863281 212.21875 600.476562 208.839844 C 595.5 203.882812 590.308594 199.144531 584.976562 194.574219 C 580.894531 191.070312 575.003906 184.164062 569.195312 184.164062 C 566.609375 184.164062 564.054688 185.316406 562.347656 187.515625 C 559.414062 191.292969 560.105469 196.734375 563.882812 199.660156 C 572.40625 206.265625 580.609375 213.484375 588.253906 221.101562 Z M 588.253906 221.101562 " fill-opacity="1" fill-rule="nonzero"/><path fill="#adff1c" d="M 537.050781 181.417969 C 538.433594 182.234375 539.957031 182.625 541.453125 182.625 C 544.410156 182.625 547.296875 181.113281 548.910156 178.382812 C 551.34375 174.273438 549.992188 168.972656 545.894531 166.535156 C 535.964844 160.628906 525.640625 155.378906 515.042969 150.78125 C 513.921875 150.292969 512.753906 150.066406 511.609375 150.066406 C 508.265625 150.066406 505.078125 152.015625 503.664062 155.277344 C 501.757812 159.667969 503.773438 164.765625 508.160156 166.667969 C 518.042969 170.957031 527.761719 175.917969 537.050781 181.417969 Z M 537.050781 181.417969 " fill-opacity="1" fill-rule="nonzero"/><path fill="#adff1c" d="M 466.878906 657.503906 C 466.21875 657.503906 465.550781 657.578125 464.882812 657.734375 C 454.402344 660.210938 443.644531 662.050781 432.902344 663.203125 C 428.148438 663.710938 424.707031 667.980469 425.21875 672.730469 C 425.691406 677.171875 429.445312 680.464844 433.816406 680.464844 C 434.125 680.464844 434.433594 680.445312 434.75 680.414062 C 446.304688 679.175781 457.648438 677.226562 468.730469 674.613281 L 468.738281 674.609375 C 468.773438 674.601562 468.8125 674.59375 468.855469 674.585938 L 468.863281 674.582031 C 473.519531 673.480469 476.398438 668.820312 475.296875 664.167969 C 474.355469 660.1875 470.800781 657.503906 466.878906 657.503906 Z M 466.878906 657.503906 " fill-opacity="1" fill-rule="nonzero"/><path fill="#adff1c" d="M 400.453125 664.65625 C 389.625 664.480469 378.742188 663.621094 368.089844 662.113281 C 367.679688 662.058594 367.269531 662.027344 366.863281 662.027344 C 362.621094 662.027344 358.914062 665.152344 358.300781 669.472656 C 357.628906 674.203125 360.929688 678.582031 365.664062 679.253906 C 372.359375 680.207031 379.09375 680.878906 385.84375 681.371094 C 390.605469 681.722656 395.382812 681.96875 400.164062 681.96875 C 400.214844 681.96875 400.261719 681.96875 400.3125 681.96875 C 405.027344 681.96875 408.886719 678.183594 408.964844 673.457031 C 409.046875 668.675781 405.234375 664.738281 400.453125 664.65625 Z M 400.453125 664.65625 " fill-opacity="1" fill-rule="nonzero"/><path fill="#adff1c" d="M 336.324219 655.5625 C 325.921875 652.722656 315.601562 649.191406 305.632812 645.074219 C 304.550781 644.625 303.433594 644.414062 302.328125 644.414062 C 298.929688 644.414062 295.703125 646.429688 294.328125 649.761719 C 292.496094 654.183594 294.597656 659.246094 299.011719 661.074219 C 309.695312 665.484375 320.648438 669.230469 331.792969 672.273438 C 332.546875 672.476562 333.304688 672.574219 334.050781 672.574219 C 337.859375 672.574219 341.347656 670.042969 342.398438 666.191406 C 343.660156 661.582031 340.9375 656.820312 336.324219 655.5625 Z M 336.324219 655.5625 " fill-opacity="1" fill-rule="nonzero"/><path fill="#adff1c" d="M 529.53125 634.054688 C 528.171875 634.054688 526.792969 634.375 525.511719 635.046875 C 515.957031 640.070312 505.996094 644.523438 495.910156 648.300781 C 491.425781 649.976562 489.15625 654.964844 490.835938 659.445312 C 492.136719 662.925781 495.433594 665.066406 498.945312 665.066406 C 501.1875 665.066406 503.304688 664.023438 505.363281 663.21875 C 514.992188 659.464844 524.421875 655.175781 533.578125 650.367188 C 537.800781 648.140625 539.421875 642.914062 537.199219 638.6875 C 535.652344 635.738281 532.640625 634.054688 529.53125 634.054688 Z M 529.53125 634.054688 " fill-opacity="1" fill-rule="nonzero"/><path fill="#adff1c" d="M 661.035156 485.828125 C 660.089844 485.492188 659.121094 485.335938 658.164062 485.335938 C 654.59375 485.335938 651.25 487.5625 649.996094 491.125 C 646.425781 501.289062 642.167969 511.332031 637.34375 520.980469 C 635.207031 525.257812 636.9375 530.457031 641.21875 532.59375 C 642.460938 533.214844 643.777344 533.511719 645.078125 533.511719 C 648.25 533.511719 651.300781 531.765625 652.824219 528.742188 C 657.96875 518.453125 662.488281 507.808594 666.347656 496.835938 C 667.910156 492.335938 665.539062 487.40625 661.035156 485.828125 Z M 661.035156 485.828125 " fill-opacity="1" fill-rule="nonzero"/><path fill="#adff1c" d="M 584.441406 595.789062 C 582.382812 595.789062 580.308594 596.523438 578.652344 598.011719 C 570.632812 605.238281 562.082031 612.03125 553.234375 618.195312 C 549.3125 620.929688 548.347656 626.324219 551.082031 630.246094 C 552.765625 632.660156 555.460938 633.953125 558.195312 633.953125 C 559.898438 633.953125 561.621094 633.449219 563.125 632.402344 C 572.617188 625.789062 581.644531 618.625 590.246094 610.882812 C 593.796875 607.683594 594.082031 602.210938 590.882812 598.652344 C 589.171875 596.753906 586.808594 595.789062 584.441406 595.789062 Z M 584.441406 595.789062 " fill-opacity="1" fill-rule="nonzero"/><path fill="#adff1c" d="M 673.003906 419.972656 C 672.746094 419.949219 672.492188 419.9375 672.246094 419.9375 C 667.800781 419.9375 664.019531 423.335938 663.628906 427.84375 C 662.6875 438.609375 661.066406 449.402344 658.804688 459.917969 C 657.796875 464.59375 660.769531 469.195312 665.445312 470.203125 C 666.058594 470.335938 666.671875 470.402344 667.277344 470.402344 C 671.265625 470.402344 674.855469 467.625 675.730469 463.5625 C 678.082031 452.617188 680.210938 441.035156 680.835938 429.820312 C 680.851562 429.65625 680.863281 429.5 680.878906 429.332031 C 681.285156 424.578125 677.765625 420.386719 673.003906 419.972656 Z M 673.003906 419.972656 " fill-opacity="1" fill-rule="nonzero"/><path fill="#adff1c" d="M 276.5 630.816406 C 267.132812 625.488281 258.003906 619.503906 249.363281 613.03125 C 247.804688 611.871094 245.984375 611.304688 244.175781 611.304688 C 241.542969 611.304688 238.941406 612.503906 237.242188 614.773438 C 234.378906 618.59375 235.152344 624.003906 238.960938 626.875 C 245.988281 632.167969 253.308594 637.09375 260.820312 641.671875 C 263.023438 643.015625 265.246094 644.328125 267.933594 645.863281 C 269.285156 646.632812 270.753906 646.996094 272.203125 646.996094 C 275.214844 646.996094 278.136719 645.425781 279.734375 642.625 C 282.105469 638.472656 280.652344 633.183594 276.5 630.816406 Z M 276.5 630.816406 " fill-opacity="1" fill-rule="nonzero"/><path fill="#adff1c" d="M 633.054688 546.644531 C 631.578125 545.652344 629.90625 545.183594 628.253906 545.183594 C 625.460938 545.183594 622.714844 546.53125 621.046875 549.03125 C 615.0625 557.992188 608.441406 566.679688 601.375 574.839844 C 598.246094 578.453125 598.640625 583.921875 602.257812 587.050781 C 603.894531 588.464844 605.910156 589.160156 607.921875 589.160156 C 610.347656 589.160156 612.757812 588.144531 614.472656 586.167969 C 622.019531 577.433594 629.042969 568.242188 635.445312 558.644531 C 638.101562 554.667969 637.03125 549.296875 633.054688 546.644531 Z M 633.054688 546.644531 " fill-opacity="1" fill-rule="nonzero"/><g clip-path="url(#9ffc6221a8)"><path fill="#adff1c" d="M 137.308594 428.152344 C 142.082031 427.898438 145.75 423.824219 145.496094 419.046875 C 145.246094 414.402344 145.125 409.683594 145.125 405.011719 C 145.125 398.871094 145.339844 392.671875 145.765625 386.578125 C 146.101562 381.804688 142.507812 377.667969 137.734375 377.328125 C 137.527344 377.320312 137.324219 377.3125 137.121094 377.3125 C 132.613281 377.3125 128.8125 380.804688 128.492188 385.363281 C 127.683594 396.875 127.59375 408.445312 128.203125 419.96875 C 128.449219 424.585938 132.273438 428.164062 136.839844 428.164062 C 136.996094 428.164062 137.152344 428.160156 137.308594 428.152344 Z M 137.308594 428.152344 " fill-opacity="1" fill-rule="nonzero"/></g><path fill="#adff1c" d="M 156.960938 482.765625 C 153.738281 472.488281 151.140625 461.898438 149.226562 451.28125 C 148.476562 447.09375 144.828125 444.15625 140.71875 444.15625 C 140.210938 444.15625 139.695312 444.203125 139.175781 444.296875 C 134.480469 445.136719 131.355469 449.621094 132.183594 454.3125 C 134.132812 465.152344 136.726562 475.875 139.960938 486.410156 C 139.976562 486.453125 139.988281 486.492188 140 486.535156 C 140.027344 486.621094 140.054688 486.707031 140.160156 487.050781 C 140.1875 487.136719 140.210938 487.214844 140.320312 487.566406 C 140.335938 487.605469 140.347656 487.648438 140.441406 487.949219 C 141.601562 491.648438 145.015625 494.015625 148.695312 494.015625 C 149.554688 494.015625 150.429688 493.890625 151.292969 493.621094 C 155.851562 492.191406 158.394531 487.332031 156.960938 482.765625 Z M 156.960938 482.765625 " fill-opacity="1" fill-rule="nonzero"/><path fill="#adff1c" d="M 162.640625 297.917969 C 165.875 297.917969 168.972656 296.101562 170.460938 293 C 175.109375 283.28125 180.433594 273.757812 186.277344 264.675781 C 188.863281 260.65625 187.699219 255.300781 183.679688 252.714844 C 182.230469 251.78125 180.605469 251.335938 179.003906 251.335938 C 176.160156 251.335938 173.367188 252.738281 171.714844 255.308594 C 165.464844 265.011719 159.777344 275.117188 154.824219 285.546875 C 152.785156 289.855469 154.605469 295.007812 158.910156 297.0625 C 160.117188 297.644531 161.386719 297.917969 162.640625 297.917969 Z M 162.640625 297.917969 " fill-opacity="1" fill-rule="nonzero"/><path fill="#adff1c" d="M 152.832031 312.117188 C 151.921875 311.816406 151.003906 311.675781 150.097656 311.675781 C 146.476562 311.675781 143.101562 313.960938 141.890625 317.578125 C 138.273438 328.46875 135.3125 339.648438 133.054688 351.089844 C 132.140625 355.765625 135.191406 360.304688 139.878906 361.230469 C 140.441406 361.347656 141.007812 361.398438 141.558594 361.398438 C 145.613281 361.398438 149.234375 358.539062 150.042969 354.417969 C 152.132812 343.835938 154.917969 333.289062 158.316406 323.0625 C 159.824219 318.523438 157.367188 313.628906 152.832031 312.117188 Z M 152.832031 312.117188 " fill-opacity="1" fill-rule="nonzero"/><path fill="#adff1c" d="M 202.710938 568.078125 C 200.996094 565.960938 198.492188 564.863281 195.964844 564.863281 C 194.054688 564.863281 192.132812 565.492188 190.535156 566.785156 C 186.8125 569.789062 186.234375 575.242188 189.238281 578.957031 C 196.5 587.941406 204.308594 596.460938 212.617188 604.476562 C 214.296875 606.09375 216.460938 606.894531 218.625 606.894531 C 220.894531 606.894531 223.164062 606.007812 224.863281 604.246094 C 228.179688 600.804688 228.078125 595.324219 224.636719 592.007812 C 216.863281 584.519531 209.488281 576.46875 202.710938 568.078125 Z M 202.710938 568.078125 " fill-opacity="1" fill-rule="nonzero"/><path fill="#adff1c" d="M 168.589844 513.039062 C 167.132812 509.859375 163.996094 507.984375 160.710938 507.984375 C 159.507812 507.984375 158.28125 508.238281 157.113281 508.773438 C 152.773438 510.761719 150.863281 515.882812 152.835938 520.230469 C 155.839844 526.785156 166.917969 547.058594 169.203125 550.742188 C 170.847656 553.382812 173.671875 554.835938 176.574219 554.835938 C 178.128906 554.835938 179.707031 554.417969 181.125 553.539062 C 185.191406 551.019531 186.441406 545.6875 183.921875 541.617188 C 178.234375 532.445312 173.078125 522.832031 168.589844 513.039062 Z M 168.589844 513.039062 " fill-opacity="1" fill-rule="nonzero"/><path fill="#adff1c" d="M 191.902344 200.734375 L 188.457031 235.359375 C 188.183594 238.109375 189.234375 240.816406 191.289062 242.660156 C 192.890625 244.101562 194.957031 244.875 197.074219 244.875 C 197.664062 244.875 198.261719 244.816406 198.851562 244.6875 L 233.484375 237.417969 C 238.167969 236.4375 241.160156 231.847656 240.179688 227.171875 C 239.191406 222.496094 234.609375 219.5 229.925781 220.480469 L 220.246094 222.507812 C 222.757812 219.972656 225.238281 217.40625 227.832031 214.984375 C 231.335938 211.726562 231.527344 206.246094 228.269531 202.75 C 226.558594 200.921875 224.25 199.996094 221.929688 199.996094 C 219.816406 199.996094 217.703125 200.761719 216.035156 202.3125 C 213.398438 204.765625 210.925781 207.382812 208.390625 209.933594 L 209.136719 202.449219 C 209.609375 197.691406 206.132812 193.453125 201.375 192.980469 C 196.609375 192.484375 192.375 195.976562 191.902344 200.734375 Z M 191.902344 200.734375 " fill-opacity="1" fill-rule="nonzero"/></svg>