<svg xmlns="http://www.w3.org/2000/svg" xmlns:xlink="http://www.w3.org/1999/xlink" width="1080" zoomAndPan="magnify" viewBox="0 0 810 809.999993" height="1080" preserveAspectRatio="xMidYMid meet" version="1.0"><defs><clipPath id="bd768c1fa9"><path d="M 144 119 L 655 119 L 655 691.707031 L 144 691.707031 Z M 144 119 " clip-rule="nonzero"/></clipPath></defs><g clip-path="url(#bd768c1fa9)"><path fill="#adff1c" d="M 622.039062 311.375 C 601.566406 275.855469 573.875 245.75 540.15625 224.078125 C 532.332031 218.660156 521.496094 221.066406 516.679688 228.894531 C 511.257812 236.71875 513.667969 247.558594 521.496094 252.375 C 539.554688 264.414062 555.8125 278.863281 569.660156 295.722656 C 634.078125 373.386719 635.886719 482.359375 581.699219 561.832031 C 529.921875 542.566406 470.921875 531.128906 408.910156 530.523438 C 408.910156 495.605469 423.359375 476.339844 431.789062 464.296875 C 451.054688 470.320312 476.339844 479.953125 510.65625 445.636719 C 546.179688 410.714844 557.015625 369.171875 560.628906 343.886719 C 561.832031 333.050781 552.800781 323.417969 541.964844 324.621094 C 515.472656 327.027344 469.117188 335.457031 432.390625 372.183594 C 398.675781 406.5 404.09375 427.574219 410.714844 437.207031 C 434.796875 405.898438 466.105469 381.816406 508.851562 370.980469 C 495.605469 379.410156 463.695312 401.683594 439.613281 425.765625 C 419.746094 445.636719 402.890625 467.308594 392.050781 489.585938 C 385.429688 473.929688 373.988281 454.664062 355.929688 435.398438 C 333.050781 410.714844 302.34375 387.835938 289.101562 379.410156 C 334.855469 390.246094 361.347656 417.339844 383.621094 447.441406 C 390.847656 437.808594 396.867188 417.339844 364.355469 382.417969 C 329.4375 345.089844 284.28125 335.457031 258.394531 331.84375 C 247.558594 330.640625 237.925781 339.671875 238.527344 350.507812 C 240.933594 375.195312 250.566406 416.132812 284.28125 451.65625 C 313.183594 482.359375 336.664062 479.351562 354.722656 474.535156 C 361.347656 482.359375 375.796875 502.832031 376.398438 529.320312 C 319.203125 531.730469 265.621094 542.566406 217.453125 560.628906 C 187.953125 517.882812 174.707031 467.308594 179.523438 414.929688 C 185.546875 357.734375 213.242188 304.152344 258.996094 266.824219 C 301.742188 231.300781 355.324219 213.84375 410.113281 216.25 L 370.980469 251.167969 C 364.355469 257.191406 363.753906 267.425781 369.777344 274.046875 C 372.785156 277.660156 377.601562 279.464844 381.816406 279.464844 C 385.429688 279.464844 389.644531 278.261719 392.652344 275.253906 L 459.480469 215.046875 C 466.105469 209.027344 466.707031 198.789062 460.6875 192.167969 L 400.480469 125.339844 C 394.460938 118.71875 384.226562 118.113281 377.601562 124.136719 C 370.980469 130.15625 370.378906 140.390625 376.398438 147.011719 L 408.308594 181.933594 C 346.296875 180.125 285.488281 199.996094 237.324219 240.332031 C 163.871094 301.140625 130.15625 395.664062 150.625 495.003906 C 153.035156 507.042969 156.648438 518.484375 161.464844 529.320312 C 199.996094 622.640625 281.875 681.640625 376.398438 690.671875 C 384.226562 691.273438 392.652344 691.875 400.480469 691.875 C 464.902344 691.875 526.914062 667.792969 575.078125 622.039062 C 659.96875 542.566406 679.835938 411.917969 622.039062 311.375 Z M 622.039062 311.375 " fill-opacity="1" fill-rule="nonzero"/></g></svg>